<?xml version="1.0" encoding="UTF-8" standalone="no"?>
<!DOCTYPE svg PUBLIC "-//W3C//DTD SVG 1.1//EN"
 "http://www.w3.org/Graphics/SVG/1.1/DTD/svg11.dtd">
<!-- Generated by graphviz version 2.43.0 (0)
 -->
<!-- Title: %3 Pages: 1 -->
<svg width="475pt" height="4790pt"
 viewBox="0.00 0.00 475.00 4790.00" xmlns="http://www.w3.org/2000/svg" xmlns:xlink="http://www.w3.org/1999/xlink">
<g id="graph0" class="graph" transform="scale(1 1) rotate(0) translate(4 4786)">
<title>%3</title>
<polygon fill="white" stroke="transparent" points="-4,4 -4,-4786 471,-4786 471,4 -4,4"/>
<!-- node0x561780880700 -->
<g id="node1" class="node">
<title>node0x561780880700</title>
<path fill="lightgrey" stroke="black" d="M243,-4745.5C243,-4745.5 324,-4745.5 324,-4745.5 330,-4745.5 336,-4751.5 336,-4757.5 336,-4757.5 336,-4769.5 336,-4769.5 336,-4775.5 330,-4781.5 324,-4781.5 324,-4781.5 243,-4781.5 243,-4781.5 237,-4781.5 231,-4775.5 231,-4769.5 231,-4769.5 231,-4757.5 231,-4757.5 231,-4751.5 237,-4745.5 243,-4745.5"/>
<text text-anchor="middle" x="251.5" y="-4759.8" font-family="Times,serif" font-size="14.00">call</text>
<polyline fill="none" stroke="black" points="272,-4745.5 272,-4781.5 "/>
<text text-anchor="middle" x="293.5" y="-4759.8" font-family="Times,serif" font-size="14.00">0x5</text>
<polyline fill="none" stroke="black" points="315,-4745.5 315,-4781.5 "/>
<text text-anchor="middle" x="325.5" y="-4759.8" font-family="Times,serif" font-size="14.00"> </text>
</g>
<!-- node0x561780880750 -->
<g id="node2" class="node">
<title>node0x561780880750</title>
<path fill="lightgrey" stroke="black" d="M190.5,-4672.5C190.5,-4672.5 376.5,-4672.5 376.5,-4672.5 382.5,-4672.5 388.5,-4678.5 388.5,-4684.5 388.5,-4684.5 388.5,-4696.5 388.5,-4696.5 388.5,-4702.5 382.5,-4708.5 376.5,-4708.5 376.5,-4708.5 190.5,-4708.5 190.5,-4708.5 184.5,-4708.5 178.5,-4702.5 178.5,-4696.5 178.5,-4696.5 178.5,-4684.5 178.5,-4684.5 178.5,-4678.5 184.5,-4672.5 190.5,-4672.5"/>
<text text-anchor="middle" x="202" y="-4686.8" font-family="Times,serif" font-size="14.00">mov</text>
<polyline fill="none" stroke="black" points="225.5,-4672.5 225.5,-4708.5 "/>
<text text-anchor="middle" x="265.5" y="-4686.8" font-family="Times,serif" font-size="14.00">REG(rdi)</text>
<polyline fill="none" stroke="black" points="305.5,-4672.5 305.5,-4708.5 "/>
<text text-anchor="middle" x="347" y="-4686.8" font-family="Times,serif" font-size="14.00">REG(rax)</text>
</g>
<!-- node0x561780880700&#45;&gt;node0x561780880750 -->
<g id="edge1" class="edge">
<title>node0x561780880700&#45;&gt;node0x561780880750</title>
<path fill="none" stroke="black" d="M283.5,-4745.31C283.5,-4737.29 283.5,-4727.55 283.5,-4718.57"/>
<polygon fill="black" stroke="black" points="287,-4718.53 283.5,-4708.53 280,-4718.53 287,-4718.53"/>
</g>
<!-- node0x5617808807a0 -->
<g id="node3" class="node">
<title>node0x5617808807a0</title>
<path fill="lightgrey" stroke="black" d="M191,-4599.5C191,-4599.5 376,-4599.5 376,-4599.5 382,-4599.5 388,-4605.5 388,-4611.5 388,-4611.5 388,-4623.5 388,-4623.5 388,-4629.5 382,-4635.5 376,-4635.5 376,-4635.5 191,-4635.5 191,-4635.5 185,-4635.5 179,-4629.5 179,-4623.5 179,-4623.5 179,-4611.5 179,-4611.5 179,-4605.5 185,-4599.5 191,-4599.5"/>
<text text-anchor="middle" x="202.5" y="-4613.8" font-family="Times,serif" font-size="14.00">mov</text>
<polyline fill="none" stroke="black" points="226,-4599.5 226,-4635.5 "/>
<text text-anchor="middle" x="267.5" y="-4613.8" font-family="Times,serif" font-size="14.00">REG(rax)</text>
<polyline fill="none" stroke="black" points="309,-4599.5 309,-4635.5 "/>
<text text-anchor="middle" x="348.5" y="-4613.8" font-family="Times,serif" font-size="14.00">IMM(60)</text>
</g>
<!-- node0x561780880750&#45;&gt;node0x5617808807a0 -->
<g id="edge2" class="edge">
<title>node0x561780880750&#45;&gt;node0x5617808807a0</title>
<path fill="none" stroke="black" d="M283.5,-4672.31C283.5,-4664.29 283.5,-4654.55 283.5,-4645.57"/>
<polygon fill="black" stroke="black" points="287,-4645.53 283.5,-4635.53 280,-4645.53 287,-4645.53"/>
</g>
<!-- node0x5617808807f0 -->
<g id="node4" class="node">
<title>node0x5617808807f0</title>
<path fill="lightgrey" stroke="black" d="M242,-4526.5C242,-4526.5 325,-4526.5 325,-4526.5 331,-4526.5 337,-4532.5 337,-4538.5 337,-4538.5 337,-4550.5 337,-4550.5 337,-4556.5 331,-4562.5 325,-4562.5 325,-4562.5 242,-4562.5 242,-4562.5 236,-4562.5 230,-4556.5 230,-4550.5 230,-4550.5 230,-4538.5 230,-4538.5 230,-4532.5 236,-4526.5 242,-4526.5"/>
<text text-anchor="middle" x="262.5" y="-4540.8" font-family="Times,serif" font-size="14.00">syscall</text>
<polyline fill="none" stroke="black" points="295,-4526.5 295,-4562.5 "/>
<text text-anchor="middle" x="305.5" y="-4540.8" font-family="Times,serif" font-size="14.00"> </text>
<polyline fill="none" stroke="black" points="316,-4526.5 316,-4562.5 "/>
<text text-anchor="middle" x="326.5" y="-4540.8" font-family="Times,serif" font-size="14.00"> </text>
</g>
<!-- node0x5617808807a0&#45;&gt;node0x5617808807f0 -->
<g id="edge3" class="edge">
<title>node0x5617808807a0&#45;&gt;node0x5617808807f0</title>
<path fill="none" stroke="black" d="M283.5,-4599.31C283.5,-4591.29 283.5,-4581.55 283.5,-4572.57"/>
<polygon fill="black" stroke="black" points="287,-4572.53 283.5,-4562.53 280,-4572.53 287,-4572.53"/>
</g>
<!-- node0x561780880840 -->
<g id="node5" class="node">
<title>node0x561780880840</title>
<path fill="lightgrey" stroke="black" d="M231,-4453.5C231,-4453.5 336,-4453.5 336,-4453.5 342,-4453.5 348,-4459.5 348,-4465.5 348,-4465.5 348,-4477.5 348,-4477.5 348,-4483.5 342,-4489.5 336,-4489.5 336,-4489.5 231,-4489.5 231,-4489.5 225,-4489.5 219,-4483.5 219,-4477.5 219,-4477.5 219,-4465.5 219,-4465.5 219,-4459.5 225,-4453.5 231,-4453.5"/>
<text text-anchor="middle" x="251.5" y="-4467.8" font-family="Times,serif" font-size="14.00">C_func</text>
<polyline fill="none" stroke="black" points="284,-4453.5 284,-4489.5 "/>
<text text-anchor="middle" x="305.5" y="-4467.8" font-family="Times,serif" font-size="14.00">0x1</text>
<polyline fill="none" stroke="black" points="327,-4453.5 327,-4489.5 "/>
<text text-anchor="middle" x="337.5" y="-4467.8" font-family="Times,serif" font-size="14.00"> </text>
</g>
<!-- node0x5617808807f0&#45;&gt;node0x561780880840 -->
<g id="edge4" class="edge">
<title>node0x5617808807f0&#45;&gt;node0x561780880840</title>
<path fill="none" stroke="black" d="M283.5,-4526.31C283.5,-4518.29 283.5,-4508.55 283.5,-4499.57"/>
<polygon fill="black" stroke="black" points="287,-4499.53 283.5,-4489.53 280,-4499.53 287,-4499.53"/>
</g>
<!-- node0x561780880890 -->
<g id="node6" class="node">
<title>node0x561780880890</title>
<path fill="lightgrey" stroke="black" d="M217.5,-4380.5C217.5,-4380.5 349.5,-4380.5 349.5,-4380.5 355.5,-4380.5 361.5,-4386.5 361.5,-4392.5 361.5,-4392.5 361.5,-4404.5 361.5,-4404.5 361.5,-4410.5 355.5,-4416.5 349.5,-4416.5 349.5,-4416.5 217.5,-4416.5 217.5,-4416.5 211.5,-4416.5 205.5,-4410.5 205.5,-4404.5 205.5,-4404.5 205.5,-4392.5 205.5,-4392.5 205.5,-4386.5 211.5,-4380.5 217.5,-4380.5"/>
<text text-anchor="middle" x="231" y="-4394.8" font-family="Times,serif" font-size="14.00">push</text>
<polyline fill="none" stroke="black" points="256.5,-4380.5 256.5,-4416.5 "/>
<text text-anchor="middle" x="298.5" y="-4394.8" font-family="Times,serif" font-size="14.00">REG(rbp)</text>
<polyline fill="none" stroke="black" points="340.5,-4380.5 340.5,-4416.5 "/>
<text text-anchor="middle" x="351" y="-4394.8" font-family="Times,serif" font-size="14.00"> </text>
</g>
<!-- node0x561780880840&#45;&gt;node0x561780880890 -->
<g id="edge5" class="edge">
<title>node0x561780880840&#45;&gt;node0x561780880890</title>
<path fill="none" stroke="black" d="M283.5,-4453.31C283.5,-4445.29 283.5,-4435.55 283.5,-4426.57"/>
<polygon fill="black" stroke="black" points="287,-4426.53 283.5,-4416.53 280,-4426.53 287,-4426.53"/>
</g>
<!-- node0x5617808808e0 -->
<g id="node7" class="node">
<title>node0x5617808808e0</title>
<path fill="lightgrey" stroke="black" d="M188.5,-4307.5C188.5,-4307.5 378.5,-4307.5 378.5,-4307.5 384.5,-4307.5 390.5,-4313.5 390.5,-4319.5 390.5,-4319.5 390.5,-4331.5 390.5,-4331.5 390.5,-4337.5 384.5,-4343.5 378.5,-4343.5 378.5,-4343.5 188.5,-4343.5 188.5,-4343.5 182.5,-4343.5 176.5,-4337.5 176.5,-4331.5 176.5,-4331.5 176.5,-4319.5 176.5,-4319.5 176.5,-4313.5 182.5,-4307.5 188.5,-4307.5"/>
<text text-anchor="middle" x="200" y="-4321.8" font-family="Times,serif" font-size="14.00">mov</text>
<polyline fill="none" stroke="black" points="223.5,-4307.5 223.5,-4343.5 "/>
<text text-anchor="middle" x="265.5" y="-4321.8" font-family="Times,serif" font-size="14.00">REG(rbp)</text>
<polyline fill="none" stroke="black" points="307.5,-4307.5 307.5,-4343.5 "/>
<text text-anchor="middle" x="349" y="-4321.8" font-family="Times,serif" font-size="14.00">REG(rsp)</text>
</g>
<!-- node0x561780880890&#45;&gt;node0x5617808808e0 -->
<g id="edge6" class="edge">
<title>node0x561780880890&#45;&gt;node0x5617808808e0</title>
<path fill="none" stroke="black" d="M283.5,-4380.31C283.5,-4372.29 283.5,-4362.55 283.5,-4353.57"/>
<polygon fill="black" stroke="black" points="287,-4353.53 283.5,-4343.53 280,-4353.53 287,-4353.53"/>
</g>
<!-- node0x561780880930 -->
<g id="node8" class="node">
<title>node0x561780880930</title>
<path fill="lightgrey" stroke="black" d="M193.5,-4234.5C193.5,-4234.5 373.5,-4234.5 373.5,-4234.5 379.5,-4234.5 385.5,-4240.5 385.5,-4246.5 385.5,-4246.5 385.5,-4258.5 385.5,-4258.5 385.5,-4264.5 379.5,-4270.5 373.5,-4270.5 373.5,-4270.5 193.5,-4270.5 193.5,-4270.5 187.5,-4270.5 181.5,-4264.5 181.5,-4258.5 181.5,-4258.5 181.5,-4246.5 181.5,-4246.5 181.5,-4240.5 187.5,-4234.5 193.5,-4234.5"/>
<text text-anchor="middle" x="202.5" y="-4248.8" font-family="Times,serif" font-size="14.00">sub</text>
<polyline fill="none" stroke="black" points="223.5,-4234.5 223.5,-4270.5 "/>
<text text-anchor="middle" x="265" y="-4248.8" font-family="Times,serif" font-size="14.00">REG(rsp)</text>
<polyline fill="none" stroke="black" points="306.5,-4234.5 306.5,-4270.5 "/>
<text text-anchor="middle" x="346" y="-4248.8" font-family="Times,serif" font-size="14.00">IMM(16)</text>
</g>
<!-- node0x5617808808e0&#45;&gt;node0x561780880930 -->
<g id="edge7" class="edge">
<title>node0x5617808808e0&#45;&gt;node0x561780880930</title>
<path fill="none" stroke="black" d="M283.5,-4307.31C283.5,-4299.29 283.5,-4289.55 283.5,-4280.57"/>
<polygon fill="black" stroke="black" points="287,-4280.53 283.5,-4270.53 280,-4280.53 287,-4280.53"/>
</g>
<!-- node0x561780880980 -->
<g id="node9" class="node">
<title>node0x561780880980</title>
<path fill="lightgrey" stroke="black" d="M162,-4161.5C162,-4161.5 405,-4161.5 405,-4161.5 411,-4161.5 417,-4167.5 417,-4173.5 417,-4173.5 417,-4185.5 417,-4185.5 417,-4191.5 411,-4197.5 405,-4197.5 405,-4197.5 162,-4197.5 162,-4197.5 156,-4197.5 150,-4191.5 150,-4185.5 150,-4185.5 150,-4173.5 150,-4173.5 150,-4167.5 156,-4161.5 162,-4161.5"/>
<text text-anchor="middle" x="173.5" y="-4175.8" font-family="Times,serif" font-size="14.00">mov</text>
<polyline fill="none" stroke="black" points="197,-4161.5 197,-4197.5 "/>
<text text-anchor="middle" x="238.5" y="-4175.8" font-family="Times,serif" font-size="14.00">REG(rax)</text>
<polyline fill="none" stroke="black" points="280,-4161.5 280,-4197.5 "/>
<text text-anchor="middle" x="348.5" y="-4175.8" font-family="Times,serif" font-size="14.00">IMM(28.000000)</text>
</g>
<!-- node0x561780880930&#45;&gt;node0x561780880980 -->
<g id="edge8" class="edge">
<title>node0x561780880930&#45;&gt;node0x561780880980</title>
<path fill="none" stroke="black" d="M283.5,-4234.31C283.5,-4226.29 283.5,-4216.55 283.5,-4207.57"/>
<polygon fill="black" stroke="black" points="287,-4207.53 283.5,-4197.53 280,-4207.53 287,-4207.53"/>
</g>
<!-- node0x5617808809d0 -->
<g id="node10" class="node">
<title>node0x5617808809d0</title>
<path fill="#cce2a3" stroke="black" d="M145,-4088.5C145,-4088.5 422,-4088.5 422,-4088.5 428,-4088.5 434,-4094.5 434,-4100.5 434,-4100.5 434,-4112.5 434,-4112.5 434,-4118.5 428,-4124.5 422,-4124.5 422,-4124.5 145,-4124.5 145,-4124.5 139,-4124.5 133,-4118.5 133,-4112.5 133,-4112.5 133,-4100.5 133,-4100.5 133,-4094.5 139,-4088.5 145,-4088.5"/>
<text text-anchor="middle" x="156.5" y="-4102.8" font-family="Times,serif" font-size="14.00">mov</text>
<polyline fill="none" stroke="black" points="180,-4088.5 180,-4124.5 "/>
<text text-anchor="middle" x="265.5" y="-4102.8" font-family="Times,serif" font-size="14.00">mem_[REG(rbp) + &#45;8]</text>
<polyline fill="none" stroke="black" points="351,-4088.5 351,-4124.5 "/>
<text text-anchor="middle" x="392.5" y="-4102.8" font-family="Times,serif" font-size="14.00">REG(rax)</text>
</g>
<!-- node0x561780880980&#45;&gt;node0x5617808809d0 -->
<g id="edge9" class="edge">
<title>node0x561780880980&#45;&gt;node0x5617808809d0</title>
<path fill="none" stroke="black" d="M283.5,-4161.31C283.5,-4153.29 283.5,-4143.55 283.5,-4134.57"/>
<polygon fill="black" stroke="black" points="287,-4134.53 283.5,-4124.53 280,-4134.53 287,-4134.53"/>
</g>
<!-- node0x561780880a70 -->
<g id="node11" class="node">
<title>node0x561780880a70</title>
<path fill="lightgrey" stroke="black" d="M195.5,-4015.5C195.5,-4015.5 371.5,-4015.5 371.5,-4015.5 377.5,-4015.5 383.5,-4021.5 383.5,-4027.5 383.5,-4027.5 383.5,-4039.5 383.5,-4039.5 383.5,-4045.5 377.5,-4051.5 371.5,-4051.5 371.5,-4051.5 195.5,-4051.5 195.5,-4051.5 189.5,-4051.5 183.5,-4045.5 183.5,-4039.5 183.5,-4039.5 183.5,-4027.5 183.5,-4027.5 183.5,-4021.5 189.5,-4015.5 195.5,-4015.5"/>
<text text-anchor="middle" x="207" y="-4029.8" font-family="Times,serif" font-size="14.00">mov</text>
<polyline fill="none" stroke="black" points="230.5,-4015.5 230.5,-4051.5 "/>
<text text-anchor="middle" x="272" y="-4029.8" font-family="Times,serif" font-size="14.00">REG(rax)</text>
<polyline fill="none" stroke="black" points="313.5,-4015.5 313.5,-4051.5 "/>
<text text-anchor="middle" x="348.5" y="-4029.8" font-family="Times,serif" font-size="14.00">IMM(0)</text>
</g>
<!-- node0x5617808809d0&#45;&gt;node0x561780880a70 -->
<g id="edge10" class="edge">
<title>node0x5617808809d0&#45;&gt;node0x561780880a70</title>
<path fill="none" stroke="black" d="M283.5,-4088.31C283.5,-4080.29 283.5,-4070.55 283.5,-4061.57"/>
<polygon fill="black" stroke="black" points="287,-4061.53 283.5,-4051.53 280,-4061.53 287,-4061.53"/>
</g>
<!-- node0x561780880ac0 -->
<g id="node12" class="node">
<title>node0x561780880ac0</title>
<path fill="#cce2a3" stroke="black" d="M140.5,-3942.5C140.5,-3942.5 426.5,-3942.5 426.5,-3942.5 432.5,-3942.5 438.5,-3948.5 438.5,-3954.5 438.5,-3954.5 438.5,-3966.5 438.5,-3966.5 438.5,-3972.5 432.5,-3978.5 426.5,-3978.5 426.5,-3978.5 140.5,-3978.5 140.5,-3978.5 134.5,-3978.5 128.5,-3972.5 128.5,-3966.5 128.5,-3966.5 128.5,-3954.5 128.5,-3954.5 128.5,-3948.5 134.5,-3942.5 140.5,-3942.5"/>
<text text-anchor="middle" x="152" y="-3956.8" font-family="Times,serif" font-size="14.00">mov</text>
<polyline fill="none" stroke="black" points="175.5,-3942.5 175.5,-3978.5 "/>
<text text-anchor="middle" x="265.5" y="-3956.8" font-family="Times,serif" font-size="14.00">mem_[REG(rbp) + &#45;16]</text>
<polyline fill="none" stroke="black" points="355.5,-3942.5 355.5,-3978.5 "/>
<text text-anchor="middle" x="397" y="-3956.8" font-family="Times,serif" font-size="14.00">REG(rax)</text>
</g>
<!-- node0x561780880a70&#45;&gt;node0x561780880ac0 -->
<g id="edge11" class="edge">
<title>node0x561780880a70&#45;&gt;node0x561780880ac0</title>
<path fill="none" stroke="black" d="M283.5,-4015.31C283.5,-4007.29 283.5,-3997.55 283.5,-3988.57"/>
<polygon fill="black" stroke="black" points="287,-3988.53 283.5,-3978.53 280,-3988.53 287,-3988.53"/>
</g>
<!-- node0x561780880b60 -->
<g id="node13" class="node">
<title>node0x561780880b60</title>
<path fill="lightgrey" stroke="black" d="M178.5,-3869.5C178.5,-3869.5 388.5,-3869.5 388.5,-3869.5 394.5,-3869.5 400.5,-3875.5 400.5,-3881.5 400.5,-3881.5 400.5,-3893.5 400.5,-3893.5 400.5,-3899.5 394.5,-3905.5 388.5,-3905.5 388.5,-3905.5 178.5,-3905.5 178.5,-3905.5 172.5,-3905.5 166.5,-3899.5 166.5,-3893.5 166.5,-3893.5 166.5,-3881.5 166.5,-3881.5 166.5,-3875.5 172.5,-3869.5 178.5,-3869.5"/>
<text text-anchor="middle" x="192" y="-3883.8" font-family="Times,serif" font-size="14.00">push</text>
<polyline fill="none" stroke="black" points="217.5,-3869.5 217.5,-3905.5 "/>
<text text-anchor="middle" x="298.5" y="-3883.8" font-family="Times,serif" font-size="14.00">mem_[REG(rip) + 0]</text>
<polyline fill="none" stroke="black" points="379.5,-3869.5 379.5,-3905.5 "/>
<text text-anchor="middle" x="390" y="-3883.8" font-family="Times,serif" font-size="14.00"> </text>
</g>
<!-- node0x561780880ac0&#45;&gt;node0x561780880b60 -->
<g id="edge12" class="edge">
<title>node0x561780880ac0&#45;&gt;node0x561780880b60</title>
<path fill="none" stroke="black" d="M283.5,-3942.31C283.5,-3934.29 283.5,-3924.55 283.5,-3915.57"/>
<polygon fill="black" stroke="black" points="287,-3915.53 283.5,-3905.53 280,-3915.53 287,-3915.53"/>
</g>
<!-- node0x561780880bb0 -->
<g id="node14" class="node">
<title>node0x561780880bb0</title>
<path fill="lightgrey" stroke="black" d="M166.5,-3796.5C166.5,-3796.5 400.5,-3796.5 400.5,-3796.5 406.5,-3796.5 412.5,-3802.5 412.5,-3808.5 412.5,-3808.5 412.5,-3820.5 412.5,-3820.5 412.5,-3826.5 406.5,-3832.5 400.5,-3832.5 400.5,-3832.5 166.5,-3832.5 166.5,-3832.5 160.5,-3832.5 154.5,-3826.5 154.5,-3820.5 154.5,-3820.5 154.5,-3808.5 154.5,-3808.5 154.5,-3802.5 160.5,-3796.5 166.5,-3796.5"/>
<text text-anchor="middle" x="178" y="-3810.8" font-family="Times,serif" font-size="14.00">mov</text>
<polyline fill="none" stroke="black" points="201.5,-3796.5 201.5,-3832.5 "/>
<text text-anchor="middle" x="243" y="-3810.8" font-family="Times,serif" font-size="14.00">REG(rax)</text>
<polyline fill="none" stroke="black" points="284.5,-3796.5 284.5,-3832.5 "/>
<text text-anchor="middle" x="348.5" y="-3810.8" font-family="Times,serif" font-size="14.00">IMM(1.000000)</text>
</g>
<!-- node0x561780880b60&#45;&gt;node0x561780880bb0 -->
<g id="edge13" class="edge">
<title>node0x561780880b60&#45;&gt;node0x561780880bb0</title>
<path fill="none" stroke="black" d="M283.5,-3869.31C283.5,-3861.29 283.5,-3851.55 283.5,-3842.57"/>
<polygon fill="black" stroke="black" points="287,-3842.53 283.5,-3832.53 280,-3842.53 287,-3842.53"/>
</g>
<!-- node0x561780880c00 -->
<g id="node15" class="node">
<title>node0x561780880c00</title>
<path fill="#cce2a3" stroke="black" d="M175.5,-3723.5C175.5,-3723.5 391.5,-3723.5 391.5,-3723.5 397.5,-3723.5 403.5,-3729.5 403.5,-3735.5 403.5,-3735.5 403.5,-3747.5 403.5,-3747.5 403.5,-3753.5 397.5,-3759.5 391.5,-3759.5 391.5,-3759.5 175.5,-3759.5 175.5,-3759.5 169.5,-3759.5 163.5,-3753.5 163.5,-3747.5 163.5,-3747.5 163.5,-3735.5 163.5,-3735.5 163.5,-3729.5 169.5,-3723.5 175.5,-3723.5"/>
<text text-anchor="middle" x="187" y="-3737.8" font-family="Times,serif" font-size="14.00">mov</text>
<polyline fill="none" stroke="black" points="210.5,-3723.5 210.5,-3759.5 "/>
<text text-anchor="middle" x="265.5" y="-3737.8" font-family="Times,serif" font-size="14.00">XMM(xmm1)</text>
<polyline fill="none" stroke="black" points="320.5,-3723.5 320.5,-3759.5 "/>
<text text-anchor="middle" x="362" y="-3737.8" font-family="Times,serif" font-size="14.00">REG(rax)</text>
</g>
<!-- node0x561780880bb0&#45;&gt;node0x561780880c00 -->
<g id="edge14" class="edge">
<title>node0x561780880bb0&#45;&gt;node0x561780880c00</title>
<path fill="none" stroke="black" d="M283.5,-3796.31C283.5,-3788.29 283.5,-3778.55 283.5,-3769.57"/>
<polygon fill="black" stroke="black" points="287,-3769.53 283.5,-3759.53 280,-3769.53 287,-3769.53"/>
</g>
<!-- node0x561780880ca0 -->
<g id="node16" class="node">
<title>node0x561780880ca0</title>
<path fill="lightgrey" stroke="black" d="M189.5,-3650.5C189.5,-3650.5 377.5,-3650.5 377.5,-3650.5 383.5,-3650.5 389.5,-3656.5 389.5,-3662.5 389.5,-3662.5 389.5,-3674.5 389.5,-3674.5 389.5,-3680.5 383.5,-3686.5 377.5,-3686.5 377.5,-3686.5 189.5,-3686.5 189.5,-3686.5 183.5,-3686.5 177.5,-3680.5 177.5,-3674.5 177.5,-3674.5 177.5,-3662.5 177.5,-3662.5 177.5,-3656.5 183.5,-3650.5 189.5,-3650.5"/>
<text text-anchor="middle" x="218" y="-3664.8" font-family="Times,serif" font-size="14.00">popXMM</text>
<polyline fill="none" stroke="black" points="258.5,-3650.5 258.5,-3686.5 "/>
<text text-anchor="middle" x="313.5" y="-3664.8" font-family="Times,serif" font-size="14.00">XMM(xmm0)</text>
<polyline fill="none" stroke="black" points="368.5,-3650.5 368.5,-3686.5 "/>
<text text-anchor="middle" x="379" y="-3664.8" font-family="Times,serif" font-size="14.00"> </text>
</g>
<!-- node0x561780880c00&#45;&gt;node0x561780880ca0 -->
<g id="edge15" class="edge">
<title>node0x561780880c00&#45;&gt;node0x561780880ca0</title>
<path fill="none" stroke="black" d="M283.5,-3723.31C283.5,-3715.29 283.5,-3705.55 283.5,-3696.57"/>
<polygon fill="black" stroke="black" points="287,-3696.53 283.5,-3686.53 280,-3696.53 287,-3696.53"/>
</g>
<!-- node0x561780880cf0 -->
<g id="node17" class="node">
<title>node0x561780880cf0</title>
<path fill="lightgrey" stroke="black" d="M164,-3577.5C164,-3577.5 403,-3577.5 403,-3577.5 409,-3577.5 415,-3583.5 415,-3589.5 415,-3589.5 415,-3601.5 415,-3601.5 415,-3607.5 409,-3613.5 403,-3613.5 403,-3613.5 164,-3613.5 164,-3613.5 158,-3613.5 152,-3607.5 152,-3601.5 152,-3601.5 152,-3589.5 152,-3589.5 152,-3583.5 158,-3577.5 164,-3577.5"/>
<text text-anchor="middle" x="173.5" y="-3591.8" font-family="Times,serif" font-size="14.00">add</text>
<polyline fill="none" stroke="black" points="195,-3577.5 195,-3613.5 "/>
<text text-anchor="middle" x="250" y="-3591.8" font-family="Times,serif" font-size="14.00">XMM(xmm0)</text>
<polyline fill="none" stroke="black" points="305,-3577.5 305,-3613.5 "/>
<text text-anchor="middle" x="360" y="-3591.8" font-family="Times,serif" font-size="14.00">XMM(xmm1)</text>
</g>
<!-- node0x561780880ca0&#45;&gt;node0x561780880cf0 -->
<g id="edge16" class="edge">
<title>node0x561780880ca0&#45;&gt;node0x561780880cf0</title>
<path fill="none" stroke="black" d="M283.5,-3650.31C283.5,-3642.29 283.5,-3632.55 283.5,-3623.57"/>
<polygon fill="black" stroke="black" points="287,-3623.53 283.5,-3613.53 280,-3623.53 287,-3623.53"/>
</g>
<!-- node0x561780880d40 -->
<g id="node18" class="node">
<title>node0x561780880d40</title>
<path fill="#cce2a3" stroke="black" d="M136,-3504.5C136,-3504.5 431,-3504.5 431,-3504.5 437,-3504.5 443,-3510.5 443,-3516.5 443,-3516.5 443,-3528.5 443,-3528.5 443,-3534.5 437,-3540.5 431,-3540.5 431,-3540.5 136,-3540.5 136,-3540.5 130,-3540.5 124,-3534.5 124,-3528.5 124,-3528.5 124,-3516.5 124,-3516.5 124,-3510.5 130,-3504.5 136,-3504.5"/>
<text text-anchor="middle" x="147.5" y="-3518.8" font-family="Times,serif" font-size="14.00">mov</text>
<polyline fill="none" stroke="black" points="171,-3504.5 171,-3540.5 "/>
<text text-anchor="middle" x="252" y="-3518.8" font-family="Times,serif" font-size="14.00">mem_[REG(rip) + 0]</text>
<polyline fill="none" stroke="black" points="333,-3504.5 333,-3540.5 "/>
<text text-anchor="middle" x="388" y="-3518.8" font-family="Times,serif" font-size="14.00">XMM(xmm0)</text>
</g>
<!-- node0x561780880cf0&#45;&gt;node0x561780880d40 -->
<g id="edge17" class="edge">
<title>node0x561780880cf0&#45;&gt;node0x561780880d40</title>
<path fill="none" stroke="black" d="M283.5,-3577.31C283.5,-3569.29 283.5,-3559.55 283.5,-3550.57"/>
<polygon fill="black" stroke="black" points="287,-3550.53 283.5,-3540.53 280,-3550.53 287,-3550.53"/>
</g>
<!-- node0x561780880de0 -->
<g id="node19" class="node">
<title>node0x561780880de0</title>
<path fill="#cce2a3" stroke="black" d="M129,-3431.5C129,-3431.5 438,-3431.5 438,-3431.5 444,-3431.5 450,-3437.5 450,-3443.5 450,-3443.5 450,-3455.5 450,-3455.5 450,-3461.5 444,-3467.5 438,-3467.5 438,-3467.5 129,-3467.5 129,-3467.5 123,-3467.5 117,-3461.5 117,-3455.5 117,-3455.5 117,-3443.5 117,-3443.5 117,-3437.5 123,-3431.5 129,-3431.5"/>
<text text-anchor="middle" x="140.5" y="-3445.8" font-family="Times,serif" font-size="14.00">mov</text>
<polyline fill="none" stroke="black" points="164,-3431.5 164,-3467.5 "/>
<text text-anchor="middle" x="219" y="-3445.8" font-family="Times,serif" font-size="14.00">XMM(xmm0)</text>
<polyline fill="none" stroke="black" points="274,-3431.5 274,-3467.5 "/>
<text text-anchor="middle" x="362" y="-3445.8" font-family="Times,serif" font-size="14.00">mem_[REG(rbp) + 16]</text>
</g>
<!-- node0x561780880d40&#45;&gt;node0x561780880de0 -->
<g id="edge18" class="edge">
<title>node0x561780880d40&#45;&gt;node0x561780880de0</title>
<path fill="none" stroke="black" d="M283.5,-3504.31C283.5,-3496.29 283.5,-3486.55 283.5,-3477.57"/>
<polygon fill="black" stroke="black" points="287,-3477.53 283.5,-3467.53 280,-3477.53 287,-3477.53"/>
</g>
<!-- node0x561780880e80 -->
<g id="node20" class="node">
<title>node0x561780880e80</title>
<path fill="lightgrey" stroke="black" d="M165.5,-3358.5C165.5,-3358.5 401.5,-3358.5 401.5,-3358.5 407.5,-3358.5 413.5,-3364.5 413.5,-3370.5 413.5,-3370.5 413.5,-3382.5 413.5,-3382.5 413.5,-3388.5 407.5,-3394.5 401.5,-3394.5 401.5,-3394.5 165.5,-3394.5 165.5,-3394.5 159.5,-3394.5 153.5,-3388.5 153.5,-3382.5 153.5,-3382.5 153.5,-3370.5 153.5,-3370.5 153.5,-3364.5 159.5,-3358.5 165.5,-3358.5"/>
<text text-anchor="middle" x="173.5" y="-3372.8" font-family="Times,serif" font-size="14.00">xor</text>
<polyline fill="none" stroke="black" points="193.5,-3358.5 193.5,-3394.5 "/>
<text text-anchor="middle" x="248.5" y="-3372.8" font-family="Times,serif" font-size="14.00">XMM(xmm1)</text>
<polyline fill="none" stroke="black" points="303.5,-3358.5 303.5,-3394.5 "/>
<text text-anchor="middle" x="358.5" y="-3372.8" font-family="Times,serif" font-size="14.00">XMM(xmm1)</text>
</g>
<!-- node0x561780880de0&#45;&gt;node0x561780880e80 -->
<g id="edge19" class="edge">
<title>node0x561780880de0&#45;&gt;node0x561780880e80</title>
<path fill="none" stroke="black" d="M283.5,-3431.31C283.5,-3423.29 283.5,-3413.55 283.5,-3404.57"/>
<polygon fill="black" stroke="black" points="287,-3404.53 283.5,-3394.53 280,-3404.53 287,-3404.53"/>
</g>
<!-- node0x561780880ed0 -->
<g id="node21" class="node">
<title>node0x561780880ed0</title>
<path fill="lightgrey" stroke="black" d="M153.5,-3285.5C153.5,-3285.5 413.5,-3285.5 413.5,-3285.5 419.5,-3285.5 425.5,-3291.5 425.5,-3297.5 425.5,-3297.5 425.5,-3309.5 425.5,-3309.5 425.5,-3315.5 419.5,-3321.5 413.5,-3321.5 413.5,-3321.5 153.5,-3321.5 153.5,-3321.5 147.5,-3321.5 141.5,-3315.5 141.5,-3309.5 141.5,-3309.5 141.5,-3297.5 141.5,-3297.5 141.5,-3291.5 147.5,-3285.5 153.5,-3285.5"/>
<text text-anchor="middle" x="173.5" y="-3299.8" font-family="Times,serif" font-size="14.00">cmpeq</text>
<polyline fill="none" stroke="black" points="205.5,-3285.5 205.5,-3321.5 "/>
<text text-anchor="middle" x="260.5" y="-3299.8" font-family="Times,serif" font-size="14.00">XMM(xmm0)</text>
<polyline fill="none" stroke="black" points="315.5,-3285.5 315.5,-3321.5 "/>
<text text-anchor="middle" x="370.5" y="-3299.8" font-family="Times,serif" font-size="14.00">XMM(xmm1)</text>
</g>
<!-- node0x561780880e80&#45;&gt;node0x561780880ed0 -->
<g id="edge20" class="edge">
<title>node0x561780880e80&#45;&gt;node0x561780880ed0</title>
<path fill="none" stroke="black" d="M283.5,-3358.31C283.5,-3350.29 283.5,-3340.55 283.5,-3331.57"/>
<polygon fill="black" stroke="black" points="287,-3331.53 283.5,-3321.53 280,-3331.53 287,-3331.53"/>
</g>
<!-- node0x561780880f20 -->
<g id="node22" class="node">
<title>node0x561780880f20</title>
<path fill="lightgrey" stroke="black" d="M175.5,-3212.5C175.5,-3212.5 391.5,-3212.5 391.5,-3212.5 397.5,-3212.5 403.5,-3218.5 403.5,-3224.5 403.5,-3224.5 403.5,-3236.5 403.5,-3236.5 403.5,-3242.5 397.5,-3248.5 391.5,-3248.5 391.5,-3248.5 175.5,-3248.5 175.5,-3248.5 169.5,-3248.5 163.5,-3242.5 163.5,-3236.5 163.5,-3236.5 163.5,-3224.5 163.5,-3224.5 163.5,-3218.5 169.5,-3212.5 175.5,-3212.5"/>
<text text-anchor="middle" x="187" y="-3226.8" font-family="Times,serif" font-size="14.00">mov</text>
<polyline fill="none" stroke="black" points="210.5,-3212.5 210.5,-3248.5 "/>
<text text-anchor="middle" x="252" y="-3226.8" font-family="Times,serif" font-size="14.00">REG(rax)</text>
<polyline fill="none" stroke="black" points="293.5,-3212.5 293.5,-3248.5 "/>
<text text-anchor="middle" x="348.5" y="-3226.8" font-family="Times,serif" font-size="14.00">XMM(xmm0)</text>
</g>
<!-- node0x561780880ed0&#45;&gt;node0x561780880f20 -->
<g id="edge21" class="edge">
<title>node0x561780880ed0&#45;&gt;node0x561780880f20</title>
<path fill="none" stroke="black" d="M283.5,-3285.31C283.5,-3277.29 283.5,-3267.55 283.5,-3258.57"/>
<polygon fill="black" stroke="black" points="287,-3258.53 283.5,-3248.53 280,-3258.53 287,-3258.53"/>
</g>
<!-- node0x561780880f70 -->
<g id="node23" class="node">
<title>node0x561780880f70</title>
<path fill="lightgrey" stroke="black" d="M223.5,-3139.5C223.5,-3139.5 343.5,-3139.5 343.5,-3139.5 349.5,-3139.5 355.5,-3145.5 355.5,-3151.5 355.5,-3151.5 355.5,-3163.5 355.5,-3163.5 355.5,-3169.5 349.5,-3175.5 343.5,-3175.5 343.5,-3175.5 223.5,-3175.5 223.5,-3175.5 217.5,-3175.5 211.5,-3169.5 211.5,-3163.5 211.5,-3163.5 211.5,-3151.5 211.5,-3151.5 211.5,-3145.5 217.5,-3139.5 223.5,-3139.5"/>
<text text-anchor="middle" x="231.5" y="-3153.8" font-family="Times,serif" font-size="14.00">not</text>
<polyline fill="none" stroke="black" points="251.5,-3139.5 251.5,-3175.5 "/>
<text text-anchor="middle" x="293" y="-3153.8" font-family="Times,serif" font-size="14.00">REG(rax)</text>
<polyline fill="none" stroke="black" points="334.5,-3139.5 334.5,-3175.5 "/>
<text text-anchor="middle" x="345" y="-3153.8" font-family="Times,serif" font-size="14.00"> </text>
</g>
<!-- node0x561780880f20&#45;&gt;node0x561780880f70 -->
<g id="edge22" class="edge">
<title>node0x561780880f20&#45;&gt;node0x561780880f70</title>
<path fill="none" stroke="black" d="M283.5,-3212.31C283.5,-3204.29 283.5,-3194.55 283.5,-3185.57"/>
<polygon fill="black" stroke="black" points="287,-3185.53 283.5,-3175.53 280,-3185.53 287,-3185.53"/>
</g>
<!-- node0x561780880fc0 -->
<g id="node24" class="node">
<title>node0x561780880fc0</title>
<path fill="lightgrey" stroke="black" d="M190.5,-3066.5C190.5,-3066.5 376.5,-3066.5 376.5,-3066.5 382.5,-3066.5 388.5,-3072.5 388.5,-3078.5 388.5,-3078.5 388.5,-3090.5 388.5,-3090.5 388.5,-3096.5 382.5,-3102.5 376.5,-3102.5 376.5,-3102.5 190.5,-3102.5 190.5,-3102.5 184.5,-3102.5 178.5,-3096.5 178.5,-3090.5 178.5,-3090.5 178.5,-3078.5 178.5,-3078.5 178.5,-3072.5 184.5,-3066.5 190.5,-3066.5"/>
<text text-anchor="middle" x="200.5" y="-3080.8" font-family="Times,serif" font-size="14.00">test</text>
<polyline fill="none" stroke="black" points="222.5,-3066.5 222.5,-3102.5 "/>
<text text-anchor="middle" x="264" y="-3080.8" font-family="Times,serif" font-size="14.00">REG(rax)</text>
<polyline fill="none" stroke="black" points="305.5,-3066.5 305.5,-3102.5 "/>
<text text-anchor="middle" x="347" y="-3080.8" font-family="Times,serif" font-size="14.00">REG(rax)</text>
</g>
<!-- node0x561780880f70&#45;&gt;node0x561780880fc0 -->
<g id="edge23" class="edge">
<title>node0x561780880f70&#45;&gt;node0x561780880fc0</title>
<path fill="none" stroke="black" d="M283.5,-3139.31C283.5,-3131.29 283.5,-3121.55 283.5,-3112.57"/>
<polygon fill="black" stroke="black" points="287,-3112.53 283.5,-3102.53 280,-3112.53 287,-3112.53"/>
</g>
<!-- node0x561780881010 -->
<g id="node25" class="node">
<title>node0x561780881010</title>
<path fill="lightgrey" stroke="black" d="M248,-2993.5C248,-2993.5 319,-2993.5 319,-2993.5 325,-2993.5 331,-2999.5 331,-3005.5 331,-3005.5 331,-3017.5 331,-3017.5 331,-3023.5 325,-3029.5 319,-3029.5 319,-3029.5 248,-3029.5 248,-3029.5 242,-3029.5 236,-3023.5 236,-3017.5 236,-3017.5 236,-3005.5 236,-3005.5 236,-2999.5 242,-2993.5 248,-2993.5"/>
<text text-anchor="middle" x="250.5" y="-3007.8" font-family="Times,serif" font-size="14.00">jz</text>
<polyline fill="none" stroke="black" points="265,-2993.5 265,-3029.5 "/>
<text text-anchor="middle" x="287.5" y="-3007.8" font-family="Times,serif" font-size="14.00">(nil)</text>
<polyline fill="none" stroke="black" points="310,-2993.5 310,-3029.5 "/>
<text text-anchor="middle" x="320.5" y="-3007.8" font-family="Times,serif" font-size="14.00"> </text>
</g>
<!-- node0x561780880fc0&#45;&gt;node0x561780881010 -->
<g id="edge24" class="edge">
<title>node0x561780880fc0&#45;&gt;node0x561780881010</title>
<path fill="none" stroke="black" d="M283.5,-3066.31C283.5,-3058.29 283.5,-3048.55 283.5,-3039.57"/>
<polygon fill="black" stroke="black" points="287,-3039.53 283.5,-3029.53 280,-3039.53 287,-3039.53"/>
</g>
<!-- node0x561780881060 -->
<g id="node26" class="node">
<title>node0x561780881060</title>
<path fill="lightgrey" stroke="black" d="M95.5,-2920.5C95.5,-2920.5 319.5,-2920.5 319.5,-2920.5 325.5,-2920.5 331.5,-2926.5 331.5,-2932.5 331.5,-2932.5 331.5,-2944.5 331.5,-2944.5 331.5,-2950.5 325.5,-2956.5 319.5,-2956.5 319.5,-2956.5 95.5,-2956.5 95.5,-2956.5 89.5,-2956.5 83.5,-2950.5 83.5,-2944.5 83.5,-2944.5 83.5,-2932.5 83.5,-2932.5 83.5,-2926.5 89.5,-2920.5 95.5,-2920.5"/>
<text text-anchor="middle" x="109" y="-2934.8" font-family="Times,serif" font-size="14.00">push</text>
<polyline fill="none" stroke="black" points="134.5,-2920.5 134.5,-2956.5 "/>
<text text-anchor="middle" x="222.5" y="-2934.8" font-family="Times,serif" font-size="14.00">mem_[REG(rbp) + 16]</text>
<polyline fill="none" stroke="black" points="310.5,-2920.5 310.5,-2956.5 "/>
<text text-anchor="middle" x="321" y="-2934.8" font-family="Times,serif" font-size="14.00"> </text>
</g>
<!-- node0x561780881010&#45;&gt;node0x561780881060 -->
<g id="edge25" class="edge">
<title>node0x561780881010&#45;&gt;node0x561780881060</title>
<path fill="none" stroke="black" d="M265.1,-2993.31C255.49,-2984.33 243.57,-2973.19 233.07,-2963.39"/>
<polygon fill="black" stroke="black" points="235.42,-2960.8 225.73,-2956.53 230.65,-2965.91 235.42,-2960.8"/>
</g>
<!-- node0x561780881650 -->
<g id="node41" class="node">
<title>node0x561780881650</title>
<path fill="lightgrey" stroke="black" d="M198.5,-1825.5C198.5,-1825.5 398.5,-1825.5 398.5,-1825.5 404.5,-1825.5 410.5,-1831.5 410.5,-1837.5 410.5,-1837.5 410.5,-1849.5 410.5,-1849.5 410.5,-1855.5 404.5,-1861.5 398.5,-1861.5 398.5,-1861.5 198.5,-1861.5 198.5,-1861.5 192.5,-1861.5 186.5,-1855.5 186.5,-1849.5 186.5,-1849.5 186.5,-1837.5 186.5,-1837.5 186.5,-1831.5 192.5,-1825.5 198.5,-1825.5"/>
<text text-anchor="middle" x="217" y="-1839.8" font-family="Times,serif" font-size="14.00">C_jmp</text>
<polyline fill="none" stroke="black" points="247.5,-1825.5 247.5,-1861.5 "/>
<text text-anchor="middle" x="318.5" y="-1839.8" font-family="Times,serif" font-size="14.00">0x561780881010</text>
<polyline fill="none" stroke="black" points="389.5,-1825.5 389.5,-1861.5 "/>
<text text-anchor="middle" x="400" y="-1839.8" font-family="Times,serif" font-size="14.00"> </text>
</g>
<!-- node0x561780881010&#45;&gt;node0x561780881650 -->
<g id="edge66" class="edge">
<title>node0x561780881010&#45;&gt;node0x561780881650</title>
<path fill="none" stroke="black" d="M307.5,-2993.43C319.12,-2983.96 332.3,-2971.23 340.5,-2957 361.11,-2921.22 361.5,-2907.79 361.5,-2866.5 361.5,-2866.5 361.5,-2866.5 361.5,-1988.5 361.5,-1943.93 335.86,-1897.62 317.29,-1869.93"/>
<polygon fill="black" stroke="black" points="320.12,-1867.86 311.55,-1861.62 314.36,-1871.84 320.12,-1867.86"/>
</g>
<!-- node0x5617808810b0 -->
<g id="node27" class="node">
<title>node0x5617808810b0</title>
<path fill="lightgrey" stroke="black" d="M87.5,-2847.5C87.5,-2847.5 321.5,-2847.5 321.5,-2847.5 327.5,-2847.5 333.5,-2853.5 333.5,-2859.5 333.5,-2859.5 333.5,-2871.5 333.5,-2871.5 333.5,-2877.5 327.5,-2883.5 321.5,-2883.5 321.5,-2883.5 87.5,-2883.5 87.5,-2883.5 81.5,-2883.5 75.5,-2877.5 75.5,-2871.5 75.5,-2871.5 75.5,-2859.5 75.5,-2859.5 75.5,-2853.5 81.5,-2847.5 87.5,-2847.5"/>
<text text-anchor="middle" x="99" y="-2861.8" font-family="Times,serif" font-size="14.00">mov</text>
<polyline fill="none" stroke="black" points="122.5,-2847.5 122.5,-2883.5 "/>
<text text-anchor="middle" x="164" y="-2861.8" font-family="Times,serif" font-size="14.00">REG(rax)</text>
<polyline fill="none" stroke="black" points="205.5,-2847.5 205.5,-2883.5 "/>
<text text-anchor="middle" x="269.5" y="-2861.8" font-family="Times,serif" font-size="14.00">IMM(1.000000)</text>
</g>
<!-- node0x561780881060&#45;&gt;node0x5617808810b0 -->
<g id="edge26" class="edge">
<title>node0x561780881060&#45;&gt;node0x5617808810b0</title>
<path fill="none" stroke="black" d="M206.77,-2920.31C206.43,-2912.29 206.02,-2902.55 205.64,-2893.57"/>
<polygon fill="black" stroke="black" points="209.14,-2893.37 205.22,-2883.53 202.14,-2893.67 209.14,-2893.37"/>
</g>
<!-- node0x561780881100 -->
<g id="node28" class="node">
<title>node0x561780881100</title>
<path fill="#cce2a3" stroke="black" d="M96.5,-2774.5C96.5,-2774.5 312.5,-2774.5 312.5,-2774.5 318.5,-2774.5 324.5,-2780.5 324.5,-2786.5 324.5,-2786.5 324.5,-2798.5 324.5,-2798.5 324.5,-2804.5 318.5,-2810.5 312.5,-2810.5 312.5,-2810.5 96.5,-2810.5 96.5,-2810.5 90.5,-2810.5 84.5,-2804.5 84.5,-2798.5 84.5,-2798.5 84.5,-2786.5 84.5,-2786.5 84.5,-2780.5 90.5,-2774.5 96.5,-2774.5"/>
<text text-anchor="middle" x="108" y="-2788.8" font-family="Times,serif" font-size="14.00">mov</text>
<polyline fill="none" stroke="black" points="131.5,-2774.5 131.5,-2810.5 "/>
<text text-anchor="middle" x="186.5" y="-2788.8" font-family="Times,serif" font-size="14.00">XMM(xmm1)</text>
<polyline fill="none" stroke="black" points="241.5,-2774.5 241.5,-2810.5 "/>
<text text-anchor="middle" x="283" y="-2788.8" font-family="Times,serif" font-size="14.00">REG(rax)</text>
</g>
<!-- node0x5617808810b0&#45;&gt;node0x561780881100 -->
<g id="edge27" class="edge">
<title>node0x5617808810b0&#45;&gt;node0x561780881100</title>
<path fill="none" stroke="black" d="M204.5,-2847.31C204.5,-2839.29 204.5,-2829.55 204.5,-2820.57"/>
<polygon fill="black" stroke="black" points="208,-2820.53 204.5,-2810.53 201,-2820.53 208,-2820.53"/>
</g>
<!-- node0x5617808811a0 -->
<g id="node29" class="node">
<title>node0x5617808811a0</title>
<path fill="lightgrey" stroke="black" d="M109.5,-2701.5C109.5,-2701.5 297.5,-2701.5 297.5,-2701.5 303.5,-2701.5 309.5,-2707.5 309.5,-2713.5 309.5,-2713.5 309.5,-2725.5 309.5,-2725.5 309.5,-2731.5 303.5,-2737.5 297.5,-2737.5 297.5,-2737.5 109.5,-2737.5 109.5,-2737.5 103.5,-2737.5 97.5,-2731.5 97.5,-2725.5 97.5,-2725.5 97.5,-2713.5 97.5,-2713.5 97.5,-2707.5 103.5,-2701.5 109.5,-2701.5"/>
<text text-anchor="middle" x="138" y="-2715.8" font-family="Times,serif" font-size="14.00">popXMM</text>
<polyline fill="none" stroke="black" points="178.5,-2701.5 178.5,-2737.5 "/>
<text text-anchor="middle" x="233.5" y="-2715.8" font-family="Times,serif" font-size="14.00">XMM(xmm0)</text>
<polyline fill="none" stroke="black" points="288.5,-2701.5 288.5,-2737.5 "/>
<text text-anchor="middle" x="299" y="-2715.8" font-family="Times,serif" font-size="14.00"> </text>
</g>
<!-- node0x561780881100&#45;&gt;node0x5617808811a0 -->
<g id="edge28" class="edge">
<title>node0x561780881100&#45;&gt;node0x5617808811a0</title>
<path fill="none" stroke="black" d="M204.26,-2774.31C204.14,-2766.29 204.01,-2756.55 203.88,-2747.57"/>
<polygon fill="black" stroke="black" points="207.38,-2747.48 203.74,-2737.53 200.38,-2747.58 207.38,-2747.48"/>
</g>
<!-- node0x5617808811f0 -->
<g id="node30" class="node">
<title>node0x5617808811f0</title>
<path fill="lightgrey" stroke="black" d="M82.5,-2628.5C82.5,-2628.5 320.5,-2628.5 320.5,-2628.5 326.5,-2628.5 332.5,-2634.5 332.5,-2640.5 332.5,-2640.5 332.5,-2652.5 332.5,-2652.5 332.5,-2658.5 326.5,-2664.5 320.5,-2664.5 320.5,-2664.5 82.5,-2664.5 82.5,-2664.5 76.5,-2664.5 70.5,-2658.5 70.5,-2652.5 70.5,-2652.5 70.5,-2640.5 70.5,-2640.5 70.5,-2634.5 76.5,-2628.5 82.5,-2628.5"/>
<text text-anchor="middle" x="91.5" y="-2642.8" font-family="Times,serif" font-size="14.00">sub</text>
<polyline fill="none" stroke="black" points="112.5,-2628.5 112.5,-2664.5 "/>
<text text-anchor="middle" x="167.5" y="-2642.8" font-family="Times,serif" font-size="14.00">XMM(xmm0)</text>
<polyline fill="none" stroke="black" points="222.5,-2628.5 222.5,-2664.5 "/>
<text text-anchor="middle" x="277.5" y="-2642.8" font-family="Times,serif" font-size="14.00">XMM(xmm1)</text>
</g>
<!-- node0x5617808811a0&#45;&gt;node0x5617808811f0 -->
<g id="edge29" class="edge">
<title>node0x5617808811a0&#45;&gt;node0x5617808811f0</title>
<path fill="none" stroke="black" d="M203.02,-2701.31C202.79,-2693.29 202.52,-2683.55 202.26,-2674.57"/>
<polygon fill="black" stroke="black" points="205.76,-2674.43 201.98,-2664.53 198.76,-2674.62 205.76,-2674.43"/>
</g>
<!-- node0x561780881240 -->
<g id="node31" class="node">
<title>node0x561780881240</title>
<path fill="lightgrey" stroke="black" d="M101.5,-2555.5C101.5,-2555.5 297.5,-2555.5 297.5,-2555.5 303.5,-2555.5 309.5,-2561.5 309.5,-2567.5 309.5,-2567.5 309.5,-2579.5 309.5,-2579.5 309.5,-2585.5 303.5,-2591.5 297.5,-2591.5 297.5,-2591.5 101.5,-2591.5 101.5,-2591.5 95.5,-2591.5 89.5,-2585.5 89.5,-2579.5 89.5,-2579.5 89.5,-2567.5 89.5,-2567.5 89.5,-2561.5 95.5,-2555.5 101.5,-2555.5"/>
<text text-anchor="middle" x="134" y="-2569.8" font-family="Times,serif" font-size="14.00">pushXMM</text>
<polyline fill="none" stroke="black" points="178.5,-2555.5 178.5,-2591.5 "/>
<text text-anchor="middle" x="233.5" y="-2569.8" font-family="Times,serif" font-size="14.00">XMM(xmm0)</text>
<polyline fill="none" stroke="black" points="288.5,-2555.5 288.5,-2591.5 "/>
<text text-anchor="middle" x="299" y="-2569.8" font-family="Times,serif" font-size="14.00"> </text>
</g>
<!-- node0x5617808811f0&#45;&gt;node0x561780881240 -->
<g id="edge30" class="edge">
<title>node0x5617808811f0&#45;&gt;node0x561780881240</title>
<path fill="none" stroke="black" d="M201.02,-2628.31C200.79,-2620.29 200.52,-2610.55 200.26,-2601.57"/>
<polygon fill="black" stroke="black" points="203.76,-2601.43 199.98,-2591.53 196.76,-2601.62 203.76,-2601.43"/>
</g>
<!-- node0x561780881290 -->
<g id="node32" class="node">
<title>node0x561780881290</title>
<path fill="lightgrey" stroke="black" d="M155,-2482.5C155,-2482.5 236,-2482.5 236,-2482.5 242,-2482.5 248,-2488.5 248,-2494.5 248,-2494.5 248,-2506.5 248,-2506.5 248,-2512.5 242,-2518.5 236,-2518.5 236,-2518.5 155,-2518.5 155,-2518.5 149,-2518.5 143,-2512.5 143,-2506.5 143,-2506.5 143,-2494.5 143,-2494.5 143,-2488.5 149,-2482.5 155,-2482.5"/>
<text text-anchor="middle" x="163.5" y="-2496.8" font-family="Times,serif" font-size="14.00">call</text>
<polyline fill="none" stroke="black" points="184,-2482.5 184,-2518.5 "/>
<text text-anchor="middle" x="205.5" y="-2496.8" font-family="Times,serif" font-size="14.00">0x1</text>
<polyline fill="none" stroke="black" points="227,-2482.5 227,-2518.5 "/>
<text text-anchor="middle" x="237.5" y="-2496.8" font-family="Times,serif" font-size="14.00"> </text>
</g>
<!-- node0x561780881240&#45;&gt;node0x561780881290 -->
<g id="edge31" class="edge">
<title>node0x561780881240&#45;&gt;node0x561780881290</title>
<path fill="none" stroke="black" d="M198.53,-2555.31C198.08,-2547.29 197.53,-2537.55 197.03,-2528.57"/>
<polygon fill="black" stroke="black" points="200.52,-2528.32 196.46,-2518.53 193.53,-2528.71 200.52,-2528.32"/>
</g>
<!-- node0x5617808812e0 -->
<g id="node33" class="node">
<title>node0x5617808812e0</title>
<path fill="lightgrey" stroke="black" d="M100.5,-2409.5C100.5,-2409.5 272.5,-2409.5 272.5,-2409.5 278.5,-2409.5 284.5,-2415.5 284.5,-2421.5 284.5,-2421.5 284.5,-2433.5 284.5,-2433.5 284.5,-2439.5 278.5,-2445.5 272.5,-2445.5 272.5,-2445.5 100.5,-2445.5 100.5,-2445.5 94.5,-2445.5 88.5,-2439.5 88.5,-2433.5 88.5,-2433.5 88.5,-2421.5 88.5,-2421.5 88.5,-2415.5 94.5,-2409.5 100.5,-2409.5"/>
<text text-anchor="middle" x="110" y="-2423.8" font-family="Times,serif" font-size="14.00">add</text>
<polyline fill="none" stroke="black" points="131.5,-2409.5 131.5,-2445.5 "/>
<text text-anchor="middle" x="173" y="-2423.8" font-family="Times,serif" font-size="14.00">REG(rsp)</text>
<polyline fill="none" stroke="black" points="214.5,-2409.5 214.5,-2445.5 "/>
<text text-anchor="middle" x="249.5" y="-2423.8" font-family="Times,serif" font-size="14.00">IMM(8)</text>
</g>
<!-- node0x561780881290&#45;&gt;node0x5617808812e0 -->
<g id="edge32" class="edge">
<title>node0x561780881290&#45;&gt;node0x5617808812e0</title>
<path fill="none" stroke="black" d="M193.32,-2482.31C192.3,-2474.29 191.07,-2464.55 189.93,-2455.57"/>
<polygon fill="black" stroke="black" points="193.39,-2455.01 188.66,-2445.53 186.44,-2455.89 193.39,-2455.01"/>
</g>
<!-- node0x561780881330 -->
<g id="node34" class="node">
<title>node0x561780881330</title>
<path fill="lightgrey" stroke="black" d="M70.5,-2336.5C70.5,-2336.5 266.5,-2336.5 266.5,-2336.5 272.5,-2336.5 278.5,-2342.5 278.5,-2348.5 278.5,-2348.5 278.5,-2360.5 278.5,-2360.5 278.5,-2366.5 272.5,-2372.5 266.5,-2372.5 266.5,-2372.5 70.5,-2372.5 70.5,-2372.5 64.5,-2372.5 58.5,-2366.5 58.5,-2360.5 58.5,-2360.5 58.5,-2348.5 58.5,-2348.5 58.5,-2342.5 64.5,-2336.5 70.5,-2336.5"/>
<text text-anchor="middle" x="103" y="-2350.8" font-family="Times,serif" font-size="14.00">pushXMM</text>
<polyline fill="none" stroke="black" points="147.5,-2336.5 147.5,-2372.5 "/>
<text text-anchor="middle" x="202.5" y="-2350.8" font-family="Times,serif" font-size="14.00">XMM(xmm0)</text>
<polyline fill="none" stroke="black" points="257.5,-2336.5 257.5,-2372.5 "/>
<text text-anchor="middle" x="268" y="-2350.8" font-family="Times,serif" font-size="14.00"> </text>
</g>
<!-- node0x5617808812e0&#45;&gt;node0x561780881330 -->
<g id="edge33" class="edge">
<title>node0x5617808812e0&#45;&gt;node0x561780881330</title>
<path fill="none" stroke="black" d="M182.14,-2409.31C180.09,-2401.2 177.59,-2391.34 175.29,-2382.28"/>
<polygon fill="black" stroke="black" points="178.67,-2381.36 172.82,-2372.53 171.88,-2383.08 178.67,-2381.36"/>
</g>
<!-- node0x561780881380 -->
<g id="node35" class="node">
<title>node0x561780881380</title>
<path fill="#cce2a3" stroke="black" d="M12,-2263.5C12,-2263.5 321,-2263.5 321,-2263.5 327,-2263.5 333,-2269.5 333,-2275.5 333,-2275.5 333,-2287.5 333,-2287.5 333,-2293.5 327,-2299.5 321,-2299.5 321,-2299.5 12,-2299.5 12,-2299.5 6,-2299.5 0,-2293.5 0,-2287.5 0,-2287.5 0,-2275.5 0,-2275.5 0,-2269.5 6,-2263.5 12,-2263.5"/>
<text text-anchor="middle" x="23.5" y="-2277.8" font-family="Times,serif" font-size="14.00">mov</text>
<polyline fill="none" stroke="black" points="47,-2263.5 47,-2299.5 "/>
<text text-anchor="middle" x="102" y="-2277.8" font-family="Times,serif" font-size="14.00">XMM(xmm1)</text>
<polyline fill="none" stroke="black" points="157,-2263.5 157,-2299.5 "/>
<text text-anchor="middle" x="245" y="-2277.8" font-family="Times,serif" font-size="14.00">mem_[REG(rbp) + 16]</text>
</g>
<!-- node0x561780881330&#45;&gt;node0x561780881380 -->
<g id="edge34" class="edge">
<title>node0x561780881330&#45;&gt;node0x561780881380</title>
<path fill="none" stroke="black" d="M168.02,-2336.31C167.79,-2328.29 167.52,-2318.55 167.26,-2309.57"/>
<polygon fill="black" stroke="black" points="170.76,-2309.43 166.98,-2299.53 163.76,-2309.62 170.76,-2309.43"/>
</g>
<!-- node0x561780881420 -->
<g id="node36" class="node">
<title>node0x561780881420</title>
<path fill="lightgrey" stroke="black" d="M89.5,-2190.5C89.5,-2190.5 277.5,-2190.5 277.5,-2190.5 283.5,-2190.5 289.5,-2196.5 289.5,-2202.5 289.5,-2202.5 289.5,-2214.5 289.5,-2214.5 289.5,-2220.5 283.5,-2226.5 277.5,-2226.5 277.5,-2226.5 89.5,-2226.5 89.5,-2226.5 83.5,-2226.5 77.5,-2220.5 77.5,-2214.5 77.5,-2214.5 77.5,-2202.5 77.5,-2202.5 77.5,-2196.5 83.5,-2190.5 89.5,-2190.5"/>
<text text-anchor="middle" x="118" y="-2204.8" font-family="Times,serif" font-size="14.00">popXMM</text>
<polyline fill="none" stroke="black" points="158.5,-2190.5 158.5,-2226.5 "/>
<text text-anchor="middle" x="213.5" y="-2204.8" font-family="Times,serif" font-size="14.00">XMM(xmm0)</text>
<polyline fill="none" stroke="black" points="268.5,-2190.5 268.5,-2226.5 "/>
<text text-anchor="middle" x="279" y="-2204.8" font-family="Times,serif" font-size="14.00"> </text>
</g>
<!-- node0x561780881380&#45;&gt;node0x561780881420 -->
<g id="edge35" class="edge">
<title>node0x561780881380&#45;&gt;node0x561780881420</title>
<path fill="none" stroke="black" d="M170.62,-2263.31C172.56,-2255.2 174.92,-2245.34 177.09,-2236.28"/>
<polygon fill="black" stroke="black" points="180.5,-2237.07 179.42,-2226.53 173.69,-2235.44 180.5,-2237.07"/>
</g>
<!-- node0x561780881470 -->
<g id="node37" class="node">
<title>node0x561780881470</title>
<path fill="lightgrey" stroke="black" d="M72.5,-2117.5C72.5,-2117.5 312.5,-2117.5 312.5,-2117.5 318.5,-2117.5 324.5,-2123.5 324.5,-2129.5 324.5,-2129.5 324.5,-2141.5 324.5,-2141.5 324.5,-2147.5 318.5,-2153.5 312.5,-2153.5 312.5,-2153.5 72.5,-2153.5 72.5,-2153.5 66.5,-2153.5 60.5,-2147.5 60.5,-2141.5 60.5,-2141.5 60.5,-2129.5 60.5,-2129.5 60.5,-2123.5 66.5,-2117.5 72.5,-2117.5"/>
<text text-anchor="middle" x="82.5" y="-2131.8" font-family="Times,serif" font-size="14.00">mul</text>
<polyline fill="none" stroke="black" points="104.5,-2117.5 104.5,-2153.5 "/>
<text text-anchor="middle" x="159.5" y="-2131.8" font-family="Times,serif" font-size="14.00">XMM(xmm0)</text>
<polyline fill="none" stroke="black" points="214.5,-2117.5 214.5,-2153.5 "/>
<text text-anchor="middle" x="269.5" y="-2131.8" font-family="Times,serif" font-size="14.00">XMM(xmm1)</text>
</g>
<!-- node0x561780881420&#45;&gt;node0x561780881470 -->
<g id="edge36" class="edge">
<title>node0x561780881420&#45;&gt;node0x561780881470</title>
<path fill="none" stroke="black" d="M185.68,-2190.31C186.7,-2182.29 187.93,-2172.55 189.07,-2163.57"/>
<polygon fill="black" stroke="black" points="192.56,-2163.89 190.34,-2153.53 185.61,-2163.01 192.56,-2163.89"/>
</g>
<!-- node0x561780881560 -->
<g id="node38" class="node">
<title>node0x561780881560</title>
<path fill="lightgrey" stroke="black" d="M121,-2044.5C121,-2044.5 302,-2044.5 302,-2044.5 308,-2044.5 314,-2050.5 314,-2056.5 314,-2056.5 314,-2068.5 314,-2068.5 314,-2074.5 308,-2080.5 302,-2080.5 302,-2080.5 121,-2080.5 121,-2080.5 115,-2080.5 109,-2074.5 109,-2068.5 109,-2068.5 109,-2056.5 109,-2056.5 109,-2050.5 115,-2044.5 121,-2044.5"/>
<text text-anchor="middle" x="130.5" y="-2058.8" font-family="Times,serif" font-size="14.00">add</text>
<polyline fill="none" stroke="black" points="152,-2044.5 152,-2080.5 "/>
<text text-anchor="middle" x="193.5" y="-2058.8" font-family="Times,serif" font-size="14.00">REG(rsp)</text>
<polyline fill="none" stroke="black" points="235,-2044.5 235,-2080.5 "/>
<text text-anchor="middle" x="274.5" y="-2058.8" font-family="Times,serif" font-size="14.00">IMM(16)</text>
</g>
<!-- node0x561780881470&#45;&gt;node0x561780881560 -->
<g id="edge37" class="edge">
<title>node0x561780881470&#45;&gt;node0x561780881560</title>
<path fill="none" stroke="black" d="M197.1,-2117.31C199.27,-2109.2 201.91,-2099.34 204.33,-2090.28"/>
<polygon fill="black" stroke="black" points="207.74,-2091.09 206.94,-2080.53 200.98,-2089.28 207.74,-2091.09"/>
</g>
<!-- node0x5617808815b0 -->
<g id="node39" class="node">
<title>node0x5617808815b0</title>
<path fill="lightgrey" stroke="black" d="M173.5,-1971.5C173.5,-1971.5 297.5,-1971.5 297.5,-1971.5 303.5,-1971.5 309.5,-1977.5 309.5,-1983.5 309.5,-1983.5 309.5,-1995.5 309.5,-1995.5 309.5,-2001.5 303.5,-2007.5 297.5,-2007.5 297.5,-2007.5 173.5,-2007.5 173.5,-2007.5 167.5,-2007.5 161.5,-2001.5 161.5,-1995.5 161.5,-1995.5 161.5,-1983.5 161.5,-1983.5 161.5,-1977.5 167.5,-1971.5 173.5,-1971.5"/>
<text text-anchor="middle" x="183" y="-1985.8" font-family="Times,serif" font-size="14.00">pop</text>
<polyline fill="none" stroke="black" points="204.5,-1971.5 204.5,-2007.5 "/>
<text text-anchor="middle" x="246.5" y="-1985.8" font-family="Times,serif" font-size="14.00">REG(rbp)</text>
<polyline fill="none" stroke="black" points="288.5,-1971.5 288.5,-2007.5 "/>
<text text-anchor="middle" x="299" y="-1985.8" font-family="Times,serif" font-size="14.00"> </text>
</g>
<!-- node0x561780881560&#45;&gt;node0x5617808815b0 -->
<g id="edge38" class="edge">
<title>node0x561780881560&#45;&gt;node0x5617808815b0</title>
<path fill="none" stroke="black" d="M217.31,-2044.31C220.05,-2036.2 223.39,-2026.34 226.45,-2017.28"/>
<polygon fill="black" stroke="black" points="229.86,-2018.12 229.74,-2007.53 223.23,-2015.88 229.86,-2018.12"/>
</g>
<!-- node0x561780881600 -->
<g id="node40" class="node">
<title>node0x561780881600</title>
<path fill="lightgrey" stroke="black" d="M236.5,-1898.5C236.5,-1898.5 292.5,-1898.5 292.5,-1898.5 298.5,-1898.5 304.5,-1904.5 304.5,-1910.5 304.5,-1910.5 304.5,-1922.5 304.5,-1922.5 304.5,-1928.5 298.5,-1934.5 292.5,-1934.5 292.5,-1934.5 236.5,-1934.5 236.5,-1934.5 230.5,-1934.5 224.5,-1928.5 224.5,-1922.5 224.5,-1922.5 224.5,-1910.5 224.5,-1910.5 224.5,-1904.5 230.5,-1898.5 236.5,-1898.5"/>
<text text-anchor="middle" x="243.5" y="-1912.8" font-family="Times,serif" font-size="14.00">ret</text>
<polyline fill="none" stroke="black" points="262.5,-1898.5 262.5,-1934.5 "/>
<text text-anchor="middle" x="273" y="-1912.8" font-family="Times,serif" font-size="14.00"> </text>
<polyline fill="none" stroke="black" points="283.5,-1898.5 283.5,-1934.5 "/>
<text text-anchor="middle" x="294" y="-1912.8" font-family="Times,serif" font-size="14.00"> </text>
</g>
<!-- node0x5617808815b0&#45;&gt;node0x561780881600 -->
<g id="edge39" class="edge">
<title>node0x5617808815b0&#45;&gt;node0x561780881600</title>
<path fill="none" stroke="black" d="M242.52,-1971.31C245.87,-1963.12 249.95,-1953.12 253.68,-1943.98"/>
<polygon fill="black" stroke="black" points="257,-1945.11 257.54,-1934.53 250.52,-1942.46 257,-1945.11"/>
</g>
<!-- node0x561780881600&#45;&gt;node0x561780881650 -->
<g id="edge40" class="edge">
<title>node0x561780881600&#45;&gt;node0x561780881650</title>
<path fill="none" stroke="black" d="M272.73,-1898.31C276.7,-1890.03 281.54,-1879.91 285.96,-1870.69"/>
<polygon fill="black" stroke="black" points="289.18,-1872.06 290.35,-1861.53 282.87,-1869.04 289.18,-1872.06"/>
</g>
<!-- node0x5617808816a0 -->
<g id="node42" class="node">
<title>node0x5617808816a0</title>
<path fill="lightgrey" stroke="black" d="M181.5,-1752.5C181.5,-1752.5 415.5,-1752.5 415.5,-1752.5 421.5,-1752.5 427.5,-1758.5 427.5,-1764.5 427.5,-1764.5 427.5,-1776.5 427.5,-1776.5 427.5,-1782.5 421.5,-1788.5 415.5,-1788.5 415.5,-1788.5 181.5,-1788.5 181.5,-1788.5 175.5,-1788.5 169.5,-1782.5 169.5,-1776.5 169.5,-1776.5 169.5,-1764.5 169.5,-1764.5 169.5,-1758.5 175.5,-1752.5 181.5,-1752.5"/>
<text text-anchor="middle" x="193" y="-1766.8" font-family="Times,serif" font-size="14.00">mov</text>
<polyline fill="none" stroke="black" points="216.5,-1752.5 216.5,-1788.5 "/>
<text text-anchor="middle" x="258" y="-1766.8" font-family="Times,serif" font-size="14.00">REG(rax)</text>
<polyline fill="none" stroke="black" points="299.5,-1752.5 299.5,-1788.5 "/>
<text text-anchor="middle" x="363.5" y="-1766.8" font-family="Times,serif" font-size="14.00">IMM(1.000000)</text>
</g>
<!-- node0x561780881650&#45;&gt;node0x5617808816a0 -->
<g id="edge41" class="edge">
<title>node0x561780881650&#45;&gt;node0x5617808816a0</title>
<path fill="none" stroke="black" d="M298.5,-1825.31C298.5,-1817.29 298.5,-1807.55 298.5,-1798.57"/>
<polygon fill="black" stroke="black" points="302,-1798.53 298.5,-1788.53 295,-1798.53 302,-1798.53"/>
</g>
<!-- node0x5617808816f0 -->
<g id="node43" class="node">
<title>node0x5617808816f0</title>
<path fill="#cce2a3" stroke="black" d="M190.5,-1679.5C190.5,-1679.5 406.5,-1679.5 406.5,-1679.5 412.5,-1679.5 418.5,-1685.5 418.5,-1691.5 418.5,-1691.5 418.5,-1703.5 418.5,-1703.5 418.5,-1709.5 412.5,-1715.5 406.5,-1715.5 406.5,-1715.5 190.5,-1715.5 190.5,-1715.5 184.5,-1715.5 178.5,-1709.5 178.5,-1703.5 178.5,-1703.5 178.5,-1691.5 178.5,-1691.5 178.5,-1685.5 184.5,-1679.5 190.5,-1679.5"/>
<text text-anchor="middle" x="202" y="-1693.8" font-family="Times,serif" font-size="14.00">mov</text>
<polyline fill="none" stroke="black" points="225.5,-1679.5 225.5,-1715.5 "/>
<text text-anchor="middle" x="280.5" y="-1693.8" font-family="Times,serif" font-size="14.00">XMM(xmm0)</text>
<polyline fill="none" stroke="black" points="335.5,-1679.5 335.5,-1715.5 "/>
<text text-anchor="middle" x="377" y="-1693.8" font-family="Times,serif" font-size="14.00">REG(rax)</text>
</g>
<!-- node0x5617808816a0&#45;&gt;node0x5617808816f0 -->
<g id="edge42" class="edge">
<title>node0x5617808816a0&#45;&gt;node0x5617808816f0</title>
<path fill="none" stroke="black" d="M298.5,-1752.31C298.5,-1744.29 298.5,-1734.55 298.5,-1725.57"/>
<polygon fill="black" stroke="black" points="302,-1725.53 298.5,-1715.53 295,-1725.53 302,-1725.53"/>
</g>
<!-- node0x561780881790 -->
<g id="node44" class="node">
<title>node0x561780881790</title>
<path fill="lightgrey" stroke="black" d="M208,-1606.5C208,-1606.5 389,-1606.5 389,-1606.5 395,-1606.5 401,-1612.5 401,-1618.5 401,-1618.5 401,-1630.5 401,-1630.5 401,-1636.5 395,-1642.5 389,-1642.5 389,-1642.5 208,-1642.5 208,-1642.5 202,-1642.5 196,-1636.5 196,-1630.5 196,-1630.5 196,-1618.5 196,-1618.5 196,-1612.5 202,-1606.5 208,-1606.5"/>
<text text-anchor="middle" x="217.5" y="-1620.8" font-family="Times,serif" font-size="14.00">add</text>
<polyline fill="none" stroke="black" points="239,-1606.5 239,-1642.5 "/>
<text text-anchor="middle" x="280.5" y="-1620.8" font-family="Times,serif" font-size="14.00">REG(rsp)</text>
<polyline fill="none" stroke="black" points="322,-1606.5 322,-1642.5 "/>
<text text-anchor="middle" x="361.5" y="-1620.8" font-family="Times,serif" font-size="14.00">IMM(16)</text>
</g>
<!-- node0x5617808816f0&#45;&gt;node0x561780881790 -->
<g id="edge43" class="edge">
<title>node0x5617808816f0&#45;&gt;node0x561780881790</title>
<path fill="none" stroke="black" d="M298.5,-1679.31C298.5,-1671.29 298.5,-1661.55 298.5,-1652.57"/>
<polygon fill="black" stroke="black" points="302,-1652.53 298.5,-1642.53 295,-1652.53 302,-1652.53"/>
</g>
<!-- node0x5617808817e0 -->
<g id="node45" class="node">
<title>node0x5617808817e0</title>
<path fill="lightgrey" stroke="black" d="M236.5,-1533.5C236.5,-1533.5 360.5,-1533.5 360.5,-1533.5 366.5,-1533.5 372.5,-1539.5 372.5,-1545.5 372.5,-1545.5 372.5,-1557.5 372.5,-1557.5 372.5,-1563.5 366.5,-1569.5 360.5,-1569.5 360.5,-1569.5 236.5,-1569.5 236.5,-1569.5 230.5,-1569.5 224.5,-1563.5 224.5,-1557.5 224.5,-1557.5 224.5,-1545.5 224.5,-1545.5 224.5,-1539.5 230.5,-1533.5 236.5,-1533.5"/>
<text text-anchor="middle" x="246" y="-1547.8" font-family="Times,serif" font-size="14.00">pop</text>
<polyline fill="none" stroke="black" points="267.5,-1533.5 267.5,-1569.5 "/>
<text text-anchor="middle" x="309.5" y="-1547.8" font-family="Times,serif" font-size="14.00">REG(rbp)</text>
<polyline fill="none" stroke="black" points="351.5,-1533.5 351.5,-1569.5 "/>
<text text-anchor="middle" x="362" y="-1547.8" font-family="Times,serif" font-size="14.00"> </text>
</g>
<!-- node0x561780881790&#45;&gt;node0x5617808817e0 -->
<g id="edge44" class="edge">
<title>node0x561780881790&#45;&gt;node0x5617808817e0</title>
<path fill="none" stroke="black" d="M298.5,-1606.31C298.5,-1598.29 298.5,-1588.55 298.5,-1579.57"/>
<polygon fill="black" stroke="black" points="302,-1579.53 298.5,-1569.53 295,-1579.53 302,-1579.53"/>
</g>
<!-- node0x561780881830 -->
<g id="node46" class="node">
<title>node0x561780881830</title>
<path fill="lightgrey" stroke="black" d="M270.5,-1460.5C270.5,-1460.5 326.5,-1460.5 326.5,-1460.5 332.5,-1460.5 338.5,-1466.5 338.5,-1472.5 338.5,-1472.5 338.5,-1484.5 338.5,-1484.5 338.5,-1490.5 332.5,-1496.5 326.5,-1496.5 326.5,-1496.5 270.5,-1496.5 270.5,-1496.5 264.5,-1496.5 258.5,-1490.5 258.5,-1484.5 258.5,-1484.5 258.5,-1472.5 258.5,-1472.5 258.5,-1466.5 264.5,-1460.5 270.5,-1460.5"/>
<text text-anchor="middle" x="277.5" y="-1474.8" font-family="Times,serif" font-size="14.00">ret</text>
<polyline fill="none" stroke="black" points="296.5,-1460.5 296.5,-1496.5 "/>
<text text-anchor="middle" x="307" y="-1474.8" font-family="Times,serif" font-size="14.00"> </text>
<polyline fill="none" stroke="black" points="317.5,-1460.5 317.5,-1496.5 "/>
<text text-anchor="middle" x="328" y="-1474.8" font-family="Times,serif" font-size="14.00"> </text>
</g>
<!-- node0x5617808817e0&#45;&gt;node0x561780881830 -->
<g id="edge45" class="edge">
<title>node0x5617808817e0&#45;&gt;node0x561780881830</title>
<path fill="none" stroke="black" d="M298.5,-1533.31C298.5,-1525.29 298.5,-1515.55 298.5,-1506.57"/>
<polygon fill="black" stroke="black" points="302,-1506.53 298.5,-1496.53 295,-1506.53 302,-1506.53"/>
</g>
<!-- node0x561780881880 -->
<g id="node47" class="node">
<title>node0x561780881880</title>
<path fill="lightgrey" stroke="black" d="M246,-1387.5C246,-1387.5 351,-1387.5 351,-1387.5 357,-1387.5 363,-1393.5 363,-1399.5 363,-1399.5 363,-1411.5 363,-1411.5 363,-1417.5 357,-1423.5 351,-1423.5 351,-1423.5 246,-1423.5 246,-1423.5 240,-1423.5 234,-1417.5 234,-1411.5 234,-1411.5 234,-1399.5 234,-1399.5 234,-1393.5 240,-1387.5 246,-1387.5"/>
<text text-anchor="middle" x="266.5" y="-1401.8" font-family="Times,serif" font-size="14.00">C_func</text>
<polyline fill="none" stroke="black" points="299,-1387.5 299,-1423.5 "/>
<text text-anchor="middle" x="320.5" y="-1401.8" font-family="Times,serif" font-size="14.00">0x5</text>
<polyline fill="none" stroke="black" points="342,-1387.5 342,-1423.5 "/>
<text text-anchor="middle" x="352.5" y="-1401.8" font-family="Times,serif" font-size="14.00"> </text>
</g>
<!-- node0x561780881830&#45;&gt;node0x561780881880 -->
<g id="edge46" class="edge">
<title>node0x561780881830&#45;&gt;node0x561780881880</title>
<path fill="none" stroke="black" d="M298.5,-1460.31C298.5,-1452.29 298.5,-1442.55 298.5,-1433.57"/>
<polygon fill="black" stroke="black" points="302,-1433.53 298.5,-1423.53 295,-1433.53 302,-1433.53"/>
</g>
<!-- node0x5617808818d0 -->
<g id="node48" class="node">
<title>node0x5617808818d0</title>
<path fill="lightgrey" stroke="black" d="M232.5,-1314.5C232.5,-1314.5 364.5,-1314.5 364.5,-1314.5 370.5,-1314.5 376.5,-1320.5 376.5,-1326.5 376.5,-1326.5 376.5,-1338.5 376.5,-1338.5 376.5,-1344.5 370.5,-1350.5 364.5,-1350.5 364.5,-1350.5 232.5,-1350.5 232.5,-1350.5 226.5,-1350.5 220.5,-1344.5 220.5,-1338.5 220.5,-1338.5 220.5,-1326.5 220.5,-1326.5 220.5,-1320.5 226.5,-1314.5 232.5,-1314.5"/>
<text text-anchor="middle" x="246" y="-1328.8" font-family="Times,serif" font-size="14.00">push</text>
<polyline fill="none" stroke="black" points="271.5,-1314.5 271.5,-1350.5 "/>
<text text-anchor="middle" x="313.5" y="-1328.8" font-family="Times,serif" font-size="14.00">REG(rbp)</text>
<polyline fill="none" stroke="black" points="355.5,-1314.5 355.5,-1350.5 "/>
<text text-anchor="middle" x="366" y="-1328.8" font-family="Times,serif" font-size="14.00"> </text>
</g>
<!-- node0x561780881880&#45;&gt;node0x5617808818d0 -->
<g id="edge47" class="edge">
<title>node0x561780881880&#45;&gt;node0x5617808818d0</title>
<path fill="none" stroke="black" d="M298.5,-1387.31C298.5,-1379.29 298.5,-1369.55 298.5,-1360.57"/>
<polygon fill="black" stroke="black" points="302,-1360.53 298.5,-1350.53 295,-1360.53 302,-1360.53"/>
</g>
<!-- node0x561780881920 -->
<g id="node49" class="node">
<title>node0x561780881920</title>
<path fill="lightgrey" stroke="black" d="M203.5,-1241.5C203.5,-1241.5 393.5,-1241.5 393.5,-1241.5 399.5,-1241.5 405.5,-1247.5 405.5,-1253.5 405.5,-1253.5 405.5,-1265.5 405.5,-1265.5 405.5,-1271.5 399.5,-1277.5 393.5,-1277.5 393.5,-1277.5 203.5,-1277.5 203.5,-1277.5 197.5,-1277.5 191.5,-1271.5 191.5,-1265.5 191.5,-1265.5 191.5,-1253.5 191.5,-1253.5 191.5,-1247.5 197.5,-1241.5 203.5,-1241.5"/>
<text text-anchor="middle" x="215" y="-1255.8" font-family="Times,serif" font-size="14.00">mov</text>
<polyline fill="none" stroke="black" points="238.5,-1241.5 238.5,-1277.5 "/>
<text text-anchor="middle" x="280.5" y="-1255.8" font-family="Times,serif" font-size="14.00">REG(rbp)</text>
<polyline fill="none" stroke="black" points="322.5,-1241.5 322.5,-1277.5 "/>
<text text-anchor="middle" x="364" y="-1255.8" font-family="Times,serif" font-size="14.00">REG(rsp)</text>
</g>
<!-- node0x5617808818d0&#45;&gt;node0x561780881920 -->
<g id="edge48" class="edge">
<title>node0x5617808818d0&#45;&gt;node0x561780881920</title>
<path fill="none" stroke="black" d="M298.5,-1314.31C298.5,-1306.29 298.5,-1296.55 298.5,-1287.57"/>
<polygon fill="black" stroke="black" points="302,-1287.53 298.5,-1277.53 295,-1287.53 302,-1287.53"/>
</g>
<!-- node0x561780881970 -->
<g id="node50" class="node">
<title>node0x561780881970</title>
<path fill="lightgrey" stroke="black" d="M208.5,-1168.5C208.5,-1168.5 388.5,-1168.5 388.5,-1168.5 394.5,-1168.5 400.5,-1174.5 400.5,-1180.5 400.5,-1180.5 400.5,-1192.5 400.5,-1192.5 400.5,-1198.5 394.5,-1204.5 388.5,-1204.5 388.5,-1204.5 208.5,-1204.5 208.5,-1204.5 202.5,-1204.5 196.5,-1198.5 196.5,-1192.5 196.5,-1192.5 196.5,-1180.5 196.5,-1180.5 196.5,-1174.5 202.5,-1168.5 208.5,-1168.5"/>
<text text-anchor="middle" x="217.5" y="-1182.8" font-family="Times,serif" font-size="14.00">sub</text>
<polyline fill="none" stroke="black" points="238.5,-1168.5 238.5,-1204.5 "/>
<text text-anchor="middle" x="280" y="-1182.8" font-family="Times,serif" font-size="14.00">REG(rsp)</text>
<polyline fill="none" stroke="black" points="321.5,-1168.5 321.5,-1204.5 "/>
<text text-anchor="middle" x="361" y="-1182.8" font-family="Times,serif" font-size="14.00">IMM(16)</text>
</g>
<!-- node0x561780881920&#45;&gt;node0x561780881970 -->
<g id="edge49" class="edge">
<title>node0x561780881920&#45;&gt;node0x561780881970</title>
<path fill="none" stroke="black" d="M298.5,-1241.31C298.5,-1233.29 298.5,-1223.55 298.5,-1214.57"/>
<polygon fill="black" stroke="black" points="302,-1214.53 298.5,-1204.53 295,-1214.53 302,-1214.53"/>
</g>
<!-- node0x5617808819c0 -->
<g id="node51" class="node">
<title>node0x5617808819c0</title>
<path fill="lightgrey" stroke="black" d="M210.5,-1095.5C210.5,-1095.5 386.5,-1095.5 386.5,-1095.5 392.5,-1095.5 398.5,-1101.5 398.5,-1107.5 398.5,-1107.5 398.5,-1119.5 398.5,-1119.5 398.5,-1125.5 392.5,-1131.5 386.5,-1131.5 386.5,-1131.5 210.5,-1131.5 210.5,-1131.5 204.5,-1131.5 198.5,-1125.5 198.5,-1119.5 198.5,-1119.5 198.5,-1107.5 198.5,-1107.5 198.5,-1101.5 204.5,-1095.5 210.5,-1095.5"/>
<text text-anchor="middle" x="222" y="-1109.8" font-family="Times,serif" font-size="14.00">mov</text>
<polyline fill="none" stroke="black" points="245.5,-1095.5 245.5,-1131.5 "/>
<text text-anchor="middle" x="287" y="-1109.8" font-family="Times,serif" font-size="14.00">REG(rax)</text>
<polyline fill="none" stroke="black" points="328.5,-1095.5 328.5,-1131.5 "/>
<text text-anchor="middle" x="363.5" y="-1109.8" font-family="Times,serif" font-size="14.00">IMM(0)</text>
</g>
<!-- node0x561780881970&#45;&gt;node0x5617808819c0 -->
<g id="edge50" class="edge">
<title>node0x561780881970&#45;&gt;node0x5617808819c0</title>
<path fill="none" stroke="black" d="M298.5,-1168.31C298.5,-1160.29 298.5,-1150.55 298.5,-1141.57"/>
<polygon fill="black" stroke="black" points="302,-1141.53 298.5,-1131.53 295,-1141.53 302,-1141.53"/>
</g>
<!-- node0x561780881a10 -->
<g id="node52" class="node">
<title>node0x561780881a10</title>
<path fill="#cce2a3" stroke="black" d="M160,-1022.5C160,-1022.5 437,-1022.5 437,-1022.5 443,-1022.5 449,-1028.5 449,-1034.5 449,-1034.5 449,-1046.5 449,-1046.5 449,-1052.5 443,-1058.5 437,-1058.5 437,-1058.5 160,-1058.5 160,-1058.5 154,-1058.5 148,-1052.5 148,-1046.5 148,-1046.5 148,-1034.5 148,-1034.5 148,-1028.5 154,-1022.5 160,-1022.5"/>
<text text-anchor="middle" x="171.5" y="-1036.8" font-family="Times,serif" font-size="14.00">mov</text>
<polyline fill="none" stroke="black" points="195,-1022.5 195,-1058.5 "/>
<text text-anchor="middle" x="280.5" y="-1036.8" font-family="Times,serif" font-size="14.00">mem_[REG(rbp) + &#45;8]</text>
<polyline fill="none" stroke="black" points="366,-1022.5 366,-1058.5 "/>
<text text-anchor="middle" x="407.5" y="-1036.8" font-family="Times,serif" font-size="14.00">REG(rax)</text>
</g>
<!-- node0x5617808819c0&#45;&gt;node0x561780881a10 -->
<g id="edge51" class="edge">
<title>node0x5617808819c0&#45;&gt;node0x561780881a10</title>
<path fill="none" stroke="black" d="M298.5,-1095.31C298.5,-1087.29 298.5,-1077.55 298.5,-1068.57"/>
<polygon fill="black" stroke="black" points="302,-1068.53 298.5,-1058.53 295,-1068.53 302,-1068.53"/>
</g>
<!-- node0x561780881ab0 -->
<g id="node53" class="node">
<title>node0x561780881ab0</title>
<path fill="lightgrey" stroke="black" d="M258,-949.5C258,-949.5 339,-949.5 339,-949.5 345,-949.5 351,-955.5 351,-961.5 351,-961.5 351,-973.5 351,-973.5 351,-979.5 345,-985.5 339,-985.5 339,-985.5 258,-985.5 258,-985.5 252,-985.5 246,-979.5 246,-973.5 246,-973.5 246,-961.5 246,-961.5 246,-955.5 252,-949.5 258,-949.5"/>
<text text-anchor="middle" x="266.5" y="-963.8" font-family="Times,serif" font-size="14.00">call</text>
<polyline fill="none" stroke="black" points="287,-949.5 287,-985.5 "/>
<text text-anchor="middle" x="308.5" y="-963.8" font-family="Times,serif" font-size="14.00">0x8</text>
<polyline fill="none" stroke="black" points="330,-949.5 330,-985.5 "/>
<text text-anchor="middle" x="340.5" y="-963.8" font-family="Times,serif" font-size="14.00"> </text>
</g>
<!-- node0x561780881a10&#45;&gt;node0x561780881ab0 -->
<g id="edge52" class="edge">
<title>node0x561780881a10&#45;&gt;node0x561780881ab0</title>
<path fill="none" stroke="black" d="M298.5,-1022.31C298.5,-1014.29 298.5,-1004.55 298.5,-995.57"/>
<polygon fill="black" stroke="black" points="302,-995.53 298.5,-985.53 295,-995.53 302,-995.53"/>
</g>
<!-- node0x561780881b00 -->
<g id="node54" class="node">
<title>node0x561780881b00</title>
<path fill="lightgrey" stroke="black" d="M146.5,-876.5C146.5,-876.5 450.5,-876.5 450.5,-876.5 456.5,-876.5 462.5,-882.5 462.5,-888.5 462.5,-888.5 462.5,-900.5 462.5,-900.5 462.5,-906.5 456.5,-912.5 450.5,-912.5 450.5,-912.5 146.5,-912.5 146.5,-912.5 140.5,-912.5 134.5,-906.5 134.5,-900.5 134.5,-900.5 134.5,-888.5 134.5,-888.5 134.5,-882.5 140.5,-876.5 146.5,-876.5"/>
<text text-anchor="middle" x="158" y="-890.8" font-family="Times,serif" font-size="14.00">mov</text>
<polyline fill="none" stroke="black" points="181.5,-876.5 181.5,-912.5 "/>
<text text-anchor="middle" x="267" y="-890.8" font-family="Times,serif" font-size="14.00">mem_[REG(rbp) + &#45;8]</text>
<polyline fill="none" stroke="black" points="352.5,-876.5 352.5,-912.5 "/>
<text text-anchor="middle" x="407.5" y="-890.8" font-family="Times,serif" font-size="14.00">XMM(xmm0)</text>
</g>
<!-- node0x561780881ab0&#45;&gt;node0x561780881b00 -->
<g id="edge53" class="edge">
<title>node0x561780881ab0&#45;&gt;node0x561780881b00</title>
<path fill="none" stroke="black" d="M298.5,-949.31C298.5,-941.29 298.5,-931.55 298.5,-922.57"/>
<polygon fill="black" stroke="black" points="302,-922.53 298.5,-912.53 295,-922.53 302,-922.53"/>
</g>
<!-- node0x561780881b50 -->
<g id="node55" class="node">
<title>node0x561780881b50</title>
<path fill="lightgrey" stroke="black" d="M189,-803.5C189,-803.5 408,-803.5 408,-803.5 414,-803.5 420,-809.5 420,-815.5 420,-815.5 420,-827.5 420,-827.5 420,-833.5 414,-839.5 408,-839.5 408,-839.5 189,-839.5 189,-839.5 183,-839.5 177,-833.5 177,-827.5 177,-827.5 177,-815.5 177,-815.5 177,-809.5 183,-803.5 189,-803.5"/>
<text text-anchor="middle" x="202.5" y="-817.8" font-family="Times,serif" font-size="14.00">push</text>
<polyline fill="none" stroke="black" points="228,-803.5 228,-839.5 "/>
<text text-anchor="middle" x="313.5" y="-817.8" font-family="Times,serif" font-size="14.00">mem_[REG(rbp) + &#45;8]</text>
<polyline fill="none" stroke="black" points="399,-803.5 399,-839.5 "/>
<text text-anchor="middle" x="409.5" y="-817.8" font-family="Times,serif" font-size="14.00"> </text>
</g>
<!-- node0x561780881b00&#45;&gt;node0x561780881b50 -->
<g id="edge54" class="edge">
<title>node0x561780881b00&#45;&gt;node0x561780881b50</title>
<path fill="none" stroke="black" d="M298.5,-876.31C298.5,-868.29 298.5,-858.55 298.5,-849.57"/>
<polygon fill="black" stroke="black" points="302,-849.53 298.5,-839.53 295,-849.53 302,-849.53"/>
</g>
<!-- node0x561780881ba0 -->
<g id="node56" class="node">
<title>node0x561780881ba0</title>
<path fill="lightgrey" stroke="black" d="M258,-730.5C258,-730.5 339,-730.5 339,-730.5 345,-730.5 351,-736.5 351,-742.5 351,-742.5 351,-754.5 351,-754.5 351,-760.5 345,-766.5 339,-766.5 339,-766.5 258,-766.5 258,-766.5 252,-766.5 246,-760.5 246,-754.5 246,-754.5 246,-742.5 246,-742.5 246,-736.5 252,-730.5 258,-730.5"/>
<text text-anchor="middle" x="266.5" y="-744.8" font-family="Times,serif" font-size="14.00">call</text>
<polyline fill="none" stroke="black" points="287,-730.5 287,-766.5 "/>
<text text-anchor="middle" x="308.5" y="-744.8" font-family="Times,serif" font-size="14.00">0x1</text>
<polyline fill="none" stroke="black" points="330,-730.5 330,-766.5 "/>
<text text-anchor="middle" x="340.5" y="-744.8" font-family="Times,serif" font-size="14.00"> </text>
</g>
<!-- node0x561780881b50&#45;&gt;node0x561780881ba0 -->
<g id="edge55" class="edge">
<title>node0x561780881b50&#45;&gt;node0x561780881ba0</title>
<path fill="none" stroke="black" d="M298.5,-803.31C298.5,-795.29 298.5,-785.55 298.5,-776.57"/>
<polygon fill="black" stroke="black" points="302,-776.53 298.5,-766.53 295,-776.53 302,-776.53"/>
</g>
<!-- node0x561780881bf0 -->
<g id="node57" class="node">
<title>node0x561780881bf0</title>
<path fill="lightgrey" stroke="black" d="M212.5,-657.5C212.5,-657.5 384.5,-657.5 384.5,-657.5 390.5,-657.5 396.5,-663.5 396.5,-669.5 396.5,-669.5 396.5,-681.5 396.5,-681.5 396.5,-687.5 390.5,-693.5 384.5,-693.5 384.5,-693.5 212.5,-693.5 212.5,-693.5 206.5,-693.5 200.5,-687.5 200.5,-681.5 200.5,-681.5 200.5,-669.5 200.5,-669.5 200.5,-663.5 206.5,-657.5 212.5,-657.5"/>
<text text-anchor="middle" x="222" y="-671.8" font-family="Times,serif" font-size="14.00">add</text>
<polyline fill="none" stroke="black" points="243.5,-657.5 243.5,-693.5 "/>
<text text-anchor="middle" x="285" y="-671.8" font-family="Times,serif" font-size="14.00">REG(rsp)</text>
<polyline fill="none" stroke="black" points="326.5,-657.5 326.5,-693.5 "/>
<text text-anchor="middle" x="361.5" y="-671.8" font-family="Times,serif" font-size="14.00">IMM(8)</text>
</g>
<!-- node0x561780881ba0&#45;&gt;node0x561780881bf0 -->
<g id="edge56" class="edge">
<title>node0x561780881ba0&#45;&gt;node0x561780881bf0</title>
<path fill="none" stroke="black" d="M298.5,-730.31C298.5,-722.29 298.5,-712.55 298.5,-703.57"/>
<polygon fill="black" stroke="black" points="302,-703.53 298.5,-693.53 295,-703.53 302,-703.53"/>
</g>
<!-- node0x561780881c40 -->
<g id="node58" class="node">
<title>node0x561780881c40</title>
<path fill="#cce2a3" stroke="black" d="M142,-584.5C142,-584.5 455,-584.5 455,-584.5 461,-584.5 467,-590.5 467,-596.5 467,-596.5 467,-608.5 467,-608.5 467,-614.5 461,-620.5 455,-620.5 455,-620.5 142,-620.5 142,-620.5 136,-620.5 130,-614.5 130,-608.5 130,-608.5 130,-596.5 130,-596.5 130,-590.5 136,-584.5 142,-584.5"/>
<text text-anchor="middle" x="153.5" y="-598.8" font-family="Times,serif" font-size="14.00">mov</text>
<polyline fill="none" stroke="black" points="177,-584.5 177,-620.5 "/>
<text text-anchor="middle" x="267" y="-598.8" font-family="Times,serif" font-size="14.00">mem_[REG(rbp) + &#45;16]</text>
<polyline fill="none" stroke="black" points="357,-584.5 357,-620.5 "/>
<text text-anchor="middle" x="412" y="-598.8" font-family="Times,serif" font-size="14.00">XMM(xmm0)</text>
</g>
<!-- node0x561780881bf0&#45;&gt;node0x561780881c40 -->
<g id="edge57" class="edge">
<title>node0x561780881bf0&#45;&gt;node0x561780881c40</title>
<path fill="none" stroke="black" d="M298.5,-657.31C298.5,-649.29 298.5,-639.55 298.5,-630.57"/>
<polygon fill="black" stroke="black" points="302,-630.53 298.5,-620.53 295,-630.53 302,-630.53"/>
</g>
<!-- node0x561780881ce0 -->
<g id="node59" class="node">
<title>node0x561780881ce0</title>
<path fill="#cce2a3" stroke="black" d="M142,-511.5C142,-511.5 455,-511.5 455,-511.5 461,-511.5 467,-517.5 467,-523.5 467,-523.5 467,-535.5 467,-535.5 467,-541.5 461,-547.5 455,-547.5 455,-547.5 142,-547.5 142,-547.5 136,-547.5 130,-541.5 130,-535.5 130,-535.5 130,-523.5 130,-523.5 130,-517.5 136,-511.5 142,-511.5"/>
<text text-anchor="middle" x="153.5" y="-525.8" font-family="Times,serif" font-size="14.00">mov</text>
<polyline fill="none" stroke="black" points="177,-511.5 177,-547.5 "/>
<text text-anchor="middle" x="232" y="-525.8" font-family="Times,serif" font-size="14.00">XMM(xmm0)</text>
<polyline fill="none" stroke="black" points="287,-511.5 287,-547.5 "/>
<text text-anchor="middle" x="377" y="-525.8" font-family="Times,serif" font-size="14.00">mem_[REG(rbp) + &#45;16]</text>
</g>
<!-- node0x561780881c40&#45;&gt;node0x561780881ce0 -->
<g id="edge58" class="edge">
<title>node0x561780881c40&#45;&gt;node0x561780881ce0</title>
<path fill="none" stroke="black" d="M298.5,-584.31C298.5,-576.29 298.5,-566.55 298.5,-557.57"/>
<polygon fill="black" stroke="black" points="302,-557.53 298.5,-547.53 295,-557.53 302,-557.53"/>
</g>
<!-- node0x561780881d80 -->
<g id="node60" class="node">
<title>node0x561780881d80</title>
<path fill="lightgrey" stroke="black" d="M258,-438.5C258,-438.5 339,-438.5 339,-438.5 345,-438.5 351,-444.5 351,-450.5 351,-450.5 351,-462.5 351,-462.5 351,-468.5 345,-474.5 339,-474.5 339,-474.5 258,-474.5 258,-474.5 252,-474.5 246,-468.5 246,-462.5 246,-462.5 246,-450.5 246,-450.5 246,-444.5 252,-438.5 258,-438.5"/>
<text text-anchor="middle" x="266.5" y="-452.8" font-family="Times,serif" font-size="14.00">call</text>
<polyline fill="none" stroke="black" points="287,-438.5 287,-474.5 "/>
<text text-anchor="middle" x="308.5" y="-452.8" font-family="Times,serif" font-size="14.00">0x9</text>
<polyline fill="none" stroke="black" points="330,-438.5 330,-474.5 "/>
<text text-anchor="middle" x="340.5" y="-452.8" font-family="Times,serif" font-size="14.00"> </text>
</g>
<!-- node0x561780881ce0&#45;&gt;node0x561780881d80 -->
<g id="edge59" class="edge">
<title>node0x561780881ce0&#45;&gt;node0x561780881d80</title>
<path fill="none" stroke="black" d="M298.5,-511.31C298.5,-503.29 298.5,-493.55 298.5,-484.57"/>
<polygon fill="black" stroke="black" points="302,-484.53 298.5,-474.53 295,-484.53 302,-484.53"/>
</g>
<!-- node0x561780881dd0 -->
<g id="node61" class="node">
<title>node0x561780881dd0</title>
<path fill="#cce2a3" stroke="black" d="M151,-365.5C151,-365.5 446,-365.5 446,-365.5 452,-365.5 458,-371.5 458,-377.5 458,-377.5 458,-389.5 458,-389.5 458,-395.5 452,-401.5 446,-401.5 446,-401.5 151,-401.5 151,-401.5 145,-401.5 139,-395.5 139,-389.5 139,-389.5 139,-377.5 139,-377.5 139,-371.5 145,-365.5 151,-365.5"/>
<text text-anchor="middle" x="162.5" y="-379.8" font-family="Times,serif" font-size="14.00">mov</text>
<polyline fill="none" stroke="black" points="186,-365.5 186,-401.5 "/>
<text text-anchor="middle" x="241" y="-379.8" font-family="Times,serif" font-size="14.00">XMM(xmm0)</text>
<polyline fill="none" stroke="black" points="296,-365.5 296,-401.5 "/>
<text text-anchor="middle" x="377" y="-379.8" font-family="Times,serif" font-size="14.00">mem_[REG(rip) + 0]</text>
</g>
<!-- node0x561780881d80&#45;&gt;node0x561780881dd0 -->
<g id="edge60" class="edge">
<title>node0x561780881d80&#45;&gt;node0x561780881dd0</title>
<path fill="none" stroke="black" d="M298.5,-438.31C298.5,-430.29 298.5,-420.55 298.5,-411.57"/>
<polygon fill="black" stroke="black" points="302,-411.53 298.5,-401.53 295,-411.53 302,-411.53"/>
</g>
<!-- node0x561780881e70 -->
<g id="node62" class="node">
<title>node0x561780881e70</title>
<path fill="lightgrey" stroke="black" d="M258,-292.5C258,-292.5 339,-292.5 339,-292.5 345,-292.5 351,-298.5 351,-304.5 351,-304.5 351,-316.5 351,-316.5 351,-322.5 345,-328.5 339,-328.5 339,-328.5 258,-328.5 258,-328.5 252,-328.5 246,-322.5 246,-316.5 246,-316.5 246,-304.5 246,-304.5 246,-298.5 252,-292.5 258,-292.5"/>
<text text-anchor="middle" x="266.5" y="-306.8" font-family="Times,serif" font-size="14.00">call</text>
<polyline fill="none" stroke="black" points="287,-292.5 287,-328.5 "/>
<text text-anchor="middle" x="308.5" y="-306.8" font-family="Times,serif" font-size="14.00">0x9</text>
<polyline fill="none" stroke="black" points="330,-292.5 330,-328.5 "/>
<text text-anchor="middle" x="340.5" y="-306.8" font-family="Times,serif" font-size="14.00"> </text>
</g>
<!-- node0x561780881dd0&#45;&gt;node0x561780881e70 -->
<g id="edge61" class="edge">
<title>node0x561780881dd0&#45;&gt;node0x561780881e70</title>
<path fill="none" stroke="black" d="M298.5,-365.31C298.5,-357.29 298.5,-347.55 298.5,-338.57"/>
<polygon fill="black" stroke="black" points="302,-338.53 298.5,-328.53 295,-338.53 302,-338.53"/>
</g>
<!-- node0x561780881ec0 -->
<g id="node63" class="node">
<title>node0x561780881ec0</title>
<path fill="#cce2a3" stroke="black" d="M142,-219.5C142,-219.5 455,-219.5 455,-219.5 461,-219.5 467,-225.5 467,-231.5 467,-231.5 467,-243.5 467,-243.5 467,-249.5 461,-255.5 455,-255.5 455,-255.5 142,-255.5 142,-255.5 136,-255.5 130,-249.5 130,-243.5 130,-243.5 130,-231.5 130,-231.5 130,-225.5 136,-219.5 142,-219.5"/>
<text text-anchor="middle" x="153.5" y="-233.8" font-family="Times,serif" font-size="14.00">mov</text>
<polyline fill="none" stroke="black" points="177,-219.5 177,-255.5 "/>
<text text-anchor="middle" x="232" y="-233.8" font-family="Times,serif" font-size="14.00">XMM(xmm0)</text>
<polyline fill="none" stroke="black" points="287,-219.5 287,-255.5 "/>
<text text-anchor="middle" x="377" y="-233.8" font-family="Times,serif" font-size="14.00">mem_[REG(rbp) + &#45;16]</text>
</g>
<!-- node0x561780881e70&#45;&gt;node0x561780881ec0 -->
<g id="edge62" class="edge">
<title>node0x561780881e70&#45;&gt;node0x561780881ec0</title>
<path fill="none" stroke="black" d="M298.5,-292.31C298.5,-284.29 298.5,-274.55 298.5,-265.57"/>
<polygon fill="black" stroke="black" points="302,-265.53 298.5,-255.53 295,-265.53 302,-265.53"/>
</g>
<!-- node0x561780881f60 -->
<g id="node64" class="node">
<title>node0x561780881f60</title>
<path fill="lightgrey" stroke="black" d="M208,-146.5C208,-146.5 389,-146.5 389,-146.5 395,-146.5 401,-152.5 401,-158.5 401,-158.5 401,-170.5 401,-170.5 401,-176.5 395,-182.5 389,-182.5 389,-182.5 208,-182.5 208,-182.5 202,-182.5 196,-176.5 196,-170.5 196,-170.5 196,-158.5 196,-158.5 196,-152.5 202,-146.5 208,-146.5"/>
<text text-anchor="middle" x="217.5" y="-160.8" font-family="Times,serif" font-size="14.00">add</text>
<polyline fill="none" stroke="black" points="239,-146.5 239,-182.5 "/>
<text text-anchor="middle" x="280.5" y="-160.8" font-family="Times,serif" font-size="14.00">REG(rsp)</text>
<polyline fill="none" stroke="black" points="322,-146.5 322,-182.5 "/>
<text text-anchor="middle" x="361.5" y="-160.8" font-family="Times,serif" font-size="14.00">IMM(16)</text>
</g>
<!-- node0x561780881ec0&#45;&gt;node0x561780881f60 -->
<g id="edge63" class="edge">
<title>node0x561780881ec0&#45;&gt;node0x561780881f60</title>
<path fill="none" stroke="black" d="M298.5,-219.31C298.5,-211.29 298.5,-201.55 298.5,-192.57"/>
<polygon fill="black" stroke="black" points="302,-192.53 298.5,-182.53 295,-192.53 302,-192.53"/>
</g>
<!-- node0x561780881fb0 -->
<g id="node65" class="node">
<title>node0x561780881fb0</title>
<path fill="lightgrey" stroke="black" d="M236.5,-73.5C236.5,-73.5 360.5,-73.5 360.5,-73.5 366.5,-73.5 372.5,-79.5 372.5,-85.5 372.5,-85.5 372.5,-97.5 372.5,-97.5 372.5,-103.5 366.5,-109.5 360.5,-109.5 360.5,-109.5 236.5,-109.5 236.5,-109.5 230.5,-109.5 224.5,-103.5 224.5,-97.5 224.5,-97.5 224.5,-85.5 224.5,-85.5 224.5,-79.5 230.5,-73.5 236.5,-73.5"/>
<text text-anchor="middle" x="246" y="-87.8" font-family="Times,serif" font-size="14.00">pop</text>
<polyline fill="none" stroke="black" points="267.5,-73.5 267.5,-109.5 "/>
<text text-anchor="middle" x="309.5" y="-87.8" font-family="Times,serif" font-size="14.00">REG(rbp)</text>
<polyline fill="none" stroke="black" points="351.5,-73.5 351.5,-109.5 "/>
<text text-anchor="middle" x="362" y="-87.8" font-family="Times,serif" font-size="14.00"> </text>
</g>
<!-- node0x561780881f60&#45;&gt;node0x561780881fb0 -->
<g id="edge64" class="edge">
<title>node0x561780881f60&#45;&gt;node0x561780881fb0</title>
<path fill="none" stroke="black" d="M298.5,-146.31C298.5,-138.29 298.5,-128.55 298.5,-119.57"/>
<polygon fill="black" stroke="black" points="302,-119.53 298.5,-109.53 295,-119.53 302,-119.53"/>
</g>
<!-- node0x561780882000 -->
<g id="node66" class="node">
<title>node0x561780882000</title>
<path fill="lightgrey" stroke="black" d="M270.5,-0.5C270.5,-0.5 326.5,-0.5 326.5,-0.5 332.5,-0.5 338.5,-6.5 338.5,-12.5 338.5,-12.5 338.5,-24.5 338.5,-24.5 338.5,-30.5 332.5,-36.5 326.5,-36.5 326.5,-36.5 270.5,-36.5 270.5,-36.5 264.5,-36.5 258.5,-30.5 258.5,-24.5 258.5,-24.5 258.5,-12.5 258.5,-12.5 258.5,-6.5 264.5,-0.5 270.5,-0.5"/>
<text text-anchor="middle" x="277.5" y="-14.8" font-family="Times,serif" font-size="14.00">ret</text>
<polyline fill="none" stroke="black" points="296.5,-0.5 296.5,-36.5 "/>
<text text-anchor="middle" x="307" y="-14.8" font-family="Times,serif" font-size="14.00"> </text>
<polyline fill="none" stroke="black" points="317.5,-0.5 317.5,-36.5 "/>
<text text-anchor="middle" x="328" y="-14.8" font-family="Times,serif" font-size="14.00"> </text>
</g>
<!-- node0x561780881fb0&#45;&gt;node0x561780882000 -->
<g id="edge65" class="edge">
<title>node0x561780881fb0&#45;&gt;node0x561780882000</title>
<path fill="none" stroke="black" d="M298.5,-73.31C298.5,-65.29 298.5,-55.55 298.5,-46.57"/>
<polygon fill="black" stroke="black" points="302,-46.53 298.5,-36.53 295,-46.53 302,-46.53"/>
</g>
</g>
</svg>
